<svg width="16" height="16" viewBox="0 0 16 16" fill="none" xmlns="http://www.w3.org/2000/svg">
<path fill-rule="evenodd" clip-rule="evenodd" d="M6.6665 11.3333V12.6128L8.26598 11.3333H10.6665C11.7711 11.3333 12.6665 10.4378 12.6665 9.33325V5.99992C12.6665 4.89535 11.7711 3.99992 10.6665 3.99992H5.33317C4.2286 3.99992 3.33317 4.89535 3.33317 5.99992V9.33325C3.33317 10.4378 4.2286 11.3333 5.33317 11.3333H6.6665ZM5.99984 13.9999V11.9999H5.33317C3.86041 11.9999 2.6665 10.806 2.6665 9.33325V5.99992C2.6665 4.52716 3.86041 3.33325 5.33317 3.33325H10.6665C12.1393 3.33325 13.3332 4.52716 13.3332 5.99992V9.33325C13.3332 10.806 12.1393 11.9999 10.6665 11.9999H8.49984L5.99984 13.9999Z" fill="#999999"/>
</svg>
