<svg width="208" height="63" viewBox="0 0 208 63" fill="none" xmlns="http://www.w3.org/2000/svg">
<path d="M59.318 23.8907H65.5663V36.2907H59.318V62.8267H43.6555V0H59.318V23.8907ZM1.0001 0.661335H36.574V13.0613C36.574 22.5956 35.1022 30.9449 32.1585 38.1093C29.2704 45.2187 25.1881 50.7022 19.9118 54.56C14.6909 58.4178 8.66474 60.3467 1.83322 60.3467L0.166992 47.9467C3.1662 47.9467 6.22094 46.8996 9.33123 44.8053C12.4971 42.7111 15.1075 39.3493 17.1625 34.72H1.83322V22.32H20.3283C20.7171 19.6747 20.9115 16.5884 20.9115 13.0613H1.0001V0.661335Z" fill="#FF7A7A"/>
<path d="M101.803 24.8V0H115.716V62H101.803V37.2H97.4712L97.138 47.864H99.3041V60.3467H70.5617V47.864H72.7278L71.8114 15.4587H83.5583L83.8915 47.864H85.9743L86.3075 15.4587H98.0544L97.8045 24.8H101.803ZM118.216 0H132.212V62.8267H118.216V0ZM99.3041 0.496003V12.9787H70.5617V0.496003H99.3041Z" fill="#FF7A7A"/>
<path d="M200.786 12.4499H207.018V24.4051H200.786V37.762H185.165V0H200.786V12.4499ZM182.589 37.3497H142.455V27.4558H154.753V24.6525C151.54 24.2127 148.964 22.9485 147.025 20.8598C145.086 18.771 144.117 16.1327 144.117 12.9446C144.117 9.31682 145.336 6.43108 147.773 4.28738C150.21 2.14369 153.34 1.07185 157.162 1.07185H167.632C171.454 1.07185 174.584 2.14369 177.022 4.28738C179.459 6.43108 180.678 9.31682 180.678 12.9446C180.678 16.1327 179.736 18.771 177.853 20.8598C175.969 22.8935 173.476 24.1303 170.374 24.57V27.4558H182.589V37.3497ZM160.486 11.3781C160.043 11.3781 159.655 11.543 159.323 11.8728C159.046 12.1476 158.907 12.5049 158.907 12.9446C158.907 13.3843 159.046 13.7691 159.323 14.0989C159.655 14.3737 160.043 14.5111 160.486 14.5111H164.308C164.752 14.5111 165.112 14.3737 165.389 14.0989C165.721 13.7691 165.887 13.3843 165.887 12.9446C165.887 12.5049 165.721 12.1476 165.389 11.8728C165.112 11.543 164.752 11.3781 164.308 11.3781H160.486ZM188.571 39.9057C192.228 39.9057 195.163 40.9775 197.379 43.1212C199.65 45.2099 200.786 47.9582 200.786 51.3662C200.786 54.7741 199.65 57.5499 197.379 59.6936C195.163 61.7823 192.228 62.8267 188.571 62.8267H156.498C152.842 62.8267 149.878 61.7823 147.607 59.6936C145.391 57.5499 144.283 54.7741 144.283 51.3662C144.283 47.9582 145.391 45.2099 147.607 43.1212C149.878 40.9775 152.842 39.9057 156.498 39.9057H188.571ZM183.586 52.9327C184.029 52.9327 184.389 52.7953 184.666 52.5205C184.998 52.1907 185.165 51.8059 185.165 51.3662C185.165 50.9264 184.998 50.5691 184.666 50.2943C184.389 49.9645 184.029 49.7996 183.586 49.7996H161.483C161.04 49.7996 160.652 49.9645 160.32 50.2943C160.043 50.5691 159.905 50.9264 159.905 51.3662C159.905 51.8059 160.043 52.1907 160.32 52.5205C160.652 52.7953 161.04 52.9327 161.483 52.9327H183.586Z" fill="#191919"/>
</svg>
