<svg width="210" height="80" viewBox="0 0 277 104" fill="none" xmlns="http://www.w3.org/2000/svg">
<rect x="0.5" y="0.5" width="276" height="103" rx="3.5" fill="#F8F8FA"/>
<path d="M50.7238 35.3315H46.8343V36.558H50.7238V44.3536H52.2044V30.326H50.7238V35.3315ZM42.7017 32.8564H47.6188V31.6298H41.2044V40.9171H42.3039C44.9558 40.9171 46.6575 40.8343 48.6685 40.453L48.5028 39.2376C46.6575 39.5856 45.0608 39.6685 42.7017 39.6796V32.8564ZM69.4598 35.8232V30.326H67.9736V44.3094H69.4598V37.0497H71.6311V35.8232H69.4598ZM60.5592 31.6906H59.0841V40.8011H60.2333C62.3382 40.8011 64.5427 40.663 66.9349 40.1878L66.7637 38.9337C64.5482 39.3867 62.515 39.5525 60.5592 39.5691V31.6906ZM78.902 36.4309C81.9352 36.4309 83.8965 35.3646 83.8965 33.5967C83.8965 31.8398 81.9352 30.7845 78.902 30.7956C75.8578 30.7845 73.8965 31.8398 73.8965 33.5967C73.8965 35.3646 75.8578 36.4309 78.902 36.4309ZM78.902 31.9834C81.0457 31.9834 82.3771 32.5912 82.3771 33.5967C82.3771 34.6298 81.0457 35.221 78.902 35.221C76.7584 35.221 75.4269 34.6298 75.4379 33.5967C75.4269 32.5912 76.7584 31.9834 78.902 31.9834ZM72.5318 38.8232H85.2943V37.6354H72.5318V38.8232ZM74.1396 39.9613V44.0387H83.8578V42.8232H75.6313V39.9613H74.1396ZM100.771 34.9779H97.6491V36.1823H100.771V44.3536H102.24V30.326H100.771V34.9779ZM95.6159 31.4917H94.1132V33.8895C94.1021 36.4807 92.6546 39.1823 90.4889 40.221L91.4281 41.4144C93.0358 40.5801 94.2568 38.8785 94.8756 36.8619C95.4889 38.779 96.6933 40.3591 98.29 41.1602L99.185 39.9669C97.0469 39.0055 95.6104 36.453 95.6159 33.8895V31.4917ZM114.649 30.326V44.3536H116.141V30.326H114.649ZM105.318 31.4917V41.0055H112.042V31.4917H110.577V35.0884H106.798V31.4917H105.318ZM106.798 36.2652H110.577V39.779H106.798V36.2652ZM124.859 34.5525C125.771 36.5193 127.826 37.9834 130.069 38.4696L130.743 37.232C128.058 36.7514 125.633 34.5912 125.633 32.3149V31.2597H124.069V32.3149C124.058 34.5912 121.644 36.7348 118.981 37.232L119.644 38.4696C121.887 37.9779 123.937 36.5083 124.859 34.5525ZM118.522 42.4862H131.335V41.2541H118.522V42.4862ZM134.125 32.7403V35.8287H143.92V34.7845H135.595V33.7182H143.677V30.6906H134.086V31.7348H142.197V32.7403H134.125ZM132.478 37.8895H145.291V36.7514H132.478V37.8895ZM143.716 41.9558V38.8674H133.998V39.9392H142.246V40.9669H134.014V44.1602H144.153V43.1105H135.495V41.9558H143.716ZM160.706 44.3315H162.165V30.337H160.706V44.3315ZM155.126 36.7735C157.237 36.7845 158.756 35.5912 158.756 33.8729C158.756 32.1436 157.237 30.9613 155.126 30.9724C153.021 30.9613 151.507 32.1436 151.513 33.8729C151.507 35.5912 153.021 36.7845 155.126 36.7735ZM155.126 32.1768C156.43 32.1657 157.347 32.8508 157.347 33.8729C157.347 34.8895 156.43 35.5635 155.126 35.5525C153.855 35.5635 152.938 34.8895 152.949 33.8729C152.938 32.8508 153.855 32.1657 155.126 32.1768ZM159.734 37.3481C156.668 37.8011 153.098 37.8564 150.518 37.8564L150.712 39.0939C151.822 39.0884 153.11 39.0773 154.469 39.0166V43.9006H155.955V38.9337C157.242 38.8398 158.563 38.6906 159.839 38.453L159.734 37.3481ZM175.088 36.1602H173.474V30.6409H172.077V43.6685H173.474V37.3702H175.088V44.326H176.502V30.326H175.088V36.1602ZM167.231 30.7403V32.6464H164.48V33.8453H171.425V32.6464H168.701V30.7403H167.231ZM167.966 34.6851C166.204 34.6851 164.922 36.0221 164.933 37.9061C164.922 39.8177 166.204 41.1602 167.966 41.1602C169.734 41.1602 170.999 39.8177 171.01 37.9061C170.999 36.0221 169.734 34.6851 167.966 34.6851ZM167.966 39.884C166.955 39.895 166.237 39.0939 166.237 37.9061C166.237 36.7403 166.955 35.9282 167.966 35.9227C168.972 35.9282 169.695 36.7403 169.695 37.9061C169.695 39.0939 168.972 39.895 167.966 39.884Z" fill="#767676"/>
<path d="M55.9945 74.989H58.232V53.989H55.9945V74.989ZM51.0552 57.9669H53.2514V56.1436H41.2928V57.9669H43.4972V68.0276C42.5276 68.0442 41.5994 68.0442 40.7376 68.0442L40.9779 69.9088C44.8481 69.8923 49.8453 69.8177 54.3867 69.0967L54.2707 67.4392C53.2348 67.5635 52.1492 67.663 51.0552 67.7376V57.9669ZM48.8757 57.9669V67.8702C47.7901 67.9282 46.7044 67.9613 45.6519 67.9862V57.9669H48.8757ZM66.2541 63.9586V57.7017H78.4944V55.8785H64.0579V65.7735H78.6767V63.9586H66.2541ZM61.6712 72.221H80.8894V70.3729H61.6712V72.221ZM98.3507 59.3591H95.8976V54.395H93.8258V66.4945H95.8976V61.1823H98.3507V66.6188H100.456V54.0055H98.3507V59.3591ZM89.6159 55.3232V58.547H85.5551V55.3232H83.4501V65.2348H91.6877V55.3232H89.6159ZM85.5551 63.4365V60.279H89.6159V63.4365H85.5551ZM98.2595 69.6022V74.989H100.456V67.7873H86.1849V69.6022H98.2595ZM113.011 61.5967C117.743 61.5801 120.503 60.3039 120.503 57.942C120.503 55.6133 117.743 54.337 113.011 54.337C108.279 54.337 105.503 55.6133 105.503 57.942C105.503 60.3039 108.279 61.5801 113.011 61.5967ZM113.011 55.9945C116.375 55.9862 118.224 56.7155 118.224 57.942C118.224 59.2514 116.375 59.9227 113.011 59.9227C109.671 59.9227 107.815 59.2514 107.831 57.942C107.815 56.7155 109.671 55.9862 113.011 55.9945ZM103.456 64.6547H122.599V62.8729H103.456V64.6547ZM120.171 71.1851V66.2707H105.735V67.9365H117.983V69.5856H105.776V74.7901H120.776V73.0663H107.956V71.1851H120.171ZM146.857 58.6878V54.0055H144.628V65.8564H146.857V60.5442H149.915V58.6878H146.857ZM142.589 61.6547C139.357 62.2928 136.39 62.5414 133.548 62.5663V55.0414H131.31V64.4144H133.026C136.125 64.4061 139.332 64.1989 142.863 63.4945L142.589 61.6547ZM146.857 74.7072V66.9503H133.407V74.7072H146.857ZM144.686 68.6906V72.9254H135.578V68.6906H144.686ZM166.531 59.6409H161.633C161.832 58.5387 161.932 57.4116 161.932 56.2514H152.128V58.0249H159.686C159.255 62.8812 156.578 66.6851 151.183 69.3453L152.352 71.1271C157.291 68.7072 160.017 65.3177 161.202 61.4227H166.531V65.2762H160.887V67.0912H166.531V74.9807H168.736V53.9641H166.531V59.6409ZM174.048 64.232C177.445 63.6934 180.421 61.9945 181.705 59.5994C182.99 61.9945 185.965 63.6934 189.404 64.232L190.224 62.4751C186.263 61.9448 183.023 59.5994 182.973 57.0138H189.487V55.2403H173.915V57.0138H180.454C180.379 59.5994 177.13 61.9448 173.211 62.4751L174.048 64.232ZM172.142 65.8232V67.6381H180.57V74.9807H182.758V67.6381H191.285V65.8232H172.142ZM208.954 74.989H211.092V53.989H208.954V74.989ZM201.362 61.3729V63.221H204.636V73.953H206.733V54.395H204.636V61.3729H201.362ZM199.431 55.9033H197.277V59.8232C197.277 63.4033 195.719 67.1243 192.744 68.8978L194.136 70.5552C196.175 69.3122 197.617 67.0414 198.387 64.3812C199.108 66.8094 200.434 68.9144 202.398 70.0994L203.65 68.3757C200.832 66.6602 199.431 63.0884 199.431 59.7238V55.9033ZM228.536 64.9945C230.227 64.0414 231.246 62.558 231.246 60.7017C231.246 57.395 227.998 55.2238 223.481 55.2072C218.981 55.2238 215.741 57.395 215.741 60.7017C215.741 62.5829 216.793 64.0912 218.525 65.0359V70.5304H213.926V72.3702H233.144V70.5304H228.536V64.9945ZM223.481 57.0055C226.755 56.989 229.075 58.4309 229.075 60.7017C229.075 62.9475 226.755 64.4144 223.481 64.4144C220.191 64.4144 217.904 62.9475 217.904 60.7017C217.904 58.4309 220.191 56.989 223.481 57.0055ZM220.713 65.8564C221.558 66.047 222.487 66.1547 223.481 66.1547C224.484 66.1547 225.429 66.047 226.291 65.8481V70.5304H220.713V65.8564ZM235.945 56.0276L236.161 68.1105H238.473L238.688 56.0276H235.945ZM237.321 73.1575C238.224 73.1575 238.978 72.4116 238.987 71.5C238.978 70.5884 238.224 69.8425 237.321 69.8425C236.409 69.8425 235.647 70.5884 235.663 71.5C235.647 72.4116 236.409 73.1575 237.321 73.1575Z" fill="#191919"/>
<rect x="0.5" y="0.5" width="276" height="103" rx="3.5" stroke="#191919"/>
</svg>
