<svg width="80" height="80" viewBox="0 0 104 104" fill="none" xmlns="http://www.w3.org/2000/svg">
<rect x="0.5" y="0.5" width="103" height="103" rx="3.5" fill="white"/>
<path fill-rule="evenodd" clip-rule="evenodd" d="M52 26C43.9234 26 37.1369 31.5241 35.2127 39H68.7873C66.8631 31.5241 60.0766 26 52 26ZM73.2333 39C71.2257 29.1103 62.4822 21.6667 52 21.6667C41.5178 21.6667 32.7743 29.1103 30.7667 39C30.4825 40.4002 30.3333 41.8494 30.3333 43.3334H73.6667C73.6667 41.8494 73.5175 40.4002 73.2333 39Z" fill="#191919"/>
<path fill-rule="evenodd" clip-rule="evenodd" d="M71.5 43.3334H32.5C31.3034 43.3334 30.3333 44.3034 30.3333 45.5C30.3333 46.6967 31.3034 47.6667 32.5 47.6667H71.5C72.6966 47.6667 73.6667 46.6967 73.6667 45.5C73.6667 44.3034 72.6966 43.3334 71.5 43.3334ZM32.5 39C28.9101 39 26 41.9102 26 45.5C26 49.0899 28.9101 52 32.5 52H71.5C75.0899 52 78 49.0899 78 45.5C78 41.9102 75.0899 39 71.5 39H32.5Z" fill="#191919"/>
<path d="M30.9422 52.5375C30.6189 49.9512 32.6356 47.6667 35.2421 47.6667H68.7579C71.3644 47.6667 73.3811 49.9512 73.0578 52.5375L68.7245 87.2042C68.4534 89.3727 66.61 91 64.4246 91H39.5754C37.39 91 35.5466 89.3727 35.2755 87.2042L30.9422 52.5375Z" fill="#191919"/>
<path d="M64.7107 18.416C65.309 17.3797 64.9539 16.0546 63.9176 15.4563C62.8813 14.858 61.5562 15.213 60.9579 16.2493L57.4336 22.3536C58.8706 22.7247 60.2497 23.2396 61.5549 23.882L64.7107 18.416Z" fill="#191919"/>
<rect x="0.5" y="0.5" width="103" height="103" rx="3.5" stroke="#191919"/>
</svg>
