<svg width="58" height="58" viewBox="0 0 58 58" fill="none" xmlns="http://www.w3.org/2000/svg">
<g filter="url(#filter0_d_1233_7663)">
<rect x="4" width="50" height="50" rx="2" fill="white"/>
<path fill-rule="evenodd" clip-rule="evenodd" d="M29 12.5C25.117 12.5 21.8543 15.1558 20.9292 18.75H37.0708C36.1457 15.1558 32.883 12.5 29 12.5ZM39.2083 18.75C38.2431 13.9954 34.0395 10.4167 29 10.4167C23.9605 10.4167 19.7569 13.9954 18.7917 18.75C18.6551 19.4232 18.5833 20.1199 18.5833 20.8334H39.4167C39.4167 20.1199 39.3449 19.4232 39.2083 18.75Z" fill="#191919"/>
<path fill-rule="evenodd" clip-rule="evenodd" d="M38.375 20.8334H19.625C19.0497 20.8334 18.5833 21.2997 18.5833 21.875C18.5833 22.4503 19.0497 22.9167 19.625 22.9167H38.375C38.9503 22.9167 39.4167 22.4503 39.4167 21.875C39.4167 21.2997 38.9503 20.8334 38.375 20.8334ZM19.625 18.75C17.8991 18.75 16.5 20.1492 16.5 21.875C16.5 23.6009 17.8991 25 19.625 25H38.375C40.1009 25 41.5 23.6009 41.5 21.875C41.5 20.1492 40.1009 18.75 38.375 18.75H19.625Z" fill="#191919"/>
<path d="M18.8761 25.2584C18.7206 24.015 19.6902 22.9167 20.9433 22.9167H37.0567C38.3098 22.9167 39.2794 24.015 39.1239 25.2584L37.0406 41.9251C36.9103 42.9677 36.024 43.75 34.9734 43.75H23.0266C21.976 43.75 21.0897 42.9677 20.9594 41.9251L18.8761 25.2584Z" fill="#191919"/>
<path d="M35.1109 8.85387C35.3985 8.35565 35.2278 7.71858 34.7296 7.43093C34.2314 7.14328 33.5943 7.31398 33.3067 7.81221L31.6123 10.7469C32.3032 10.9254 32.9662 11.1729 33.5937 11.4818L35.1109 8.85387Z" fill="#191919"/>
<rect x="4.5" y="0.5" width="49" height="49" rx="1.5" stroke="#191919"/>
</g>
<defs>
<filter id="filter0_d_1233_7663" x="0" y="0" width="58" height="58" filterUnits="userSpaceOnUse" color-interpolation-filters="sRGB">
<feFlood flood-opacity="0" result="BackgroundImageFix"/>
<feColorMatrix in="SourceAlpha" type="matrix" values="0 0 0 0 0 0 0 0 0 0 0 0 0 0 0 0 0 0 127 0" result="hardAlpha"/>
<feOffset dy="4"/>
<feGaussianBlur stdDeviation="2"/>
<feComposite in2="hardAlpha" operator="out"/>
<feColorMatrix type="matrix" values="0 0 0 0 0 0 0 0 0 0 0 0 0 0 0 0 0 0 0.15 0"/>
<feBlend mode="normal" in2="BackgroundImageFix" result="effect1_dropShadow_1233_7663"/>
<feBlend mode="normal" in="SourceGraphic" in2="effect1_dropShadow_1233_7663" result="shape"/>
</filter>
</defs>
</svg>
