<svg width="149" height="62" viewBox="0 0 149 62" fill="none" xmlns="http://www.w3.org/2000/svg">
<path fill-rule="evenodd" clip-rule="evenodd" d="M149 0H0V52H120V61.6069C120 61.9564 120.423 62.1315 120.67 61.8843L130.554 52H149V0Z" fill="#191919"/>
<path d="M12.048 14.08H13.848V19.312C13.236 19.336 12.636 19.36 12.048 19.372V14.08ZM14.808 14.08H15.996V13.288H9.9V14.08H11.1V19.384C10.584 19.396 10.092 19.396 9.636 19.396L9.744 20.224C11.7 20.212 14.292 20.188 16.608 19.816L16.548 19.096C15.984 19.168 15.396 19.228 14.808 19.252V14.08ZM17.484 12.136V22.888H18.468V12.136H17.484ZM29.0531 17.284H22.6331V13.924H28.9451V13.108H21.6611V18.088H29.0531V17.284ZM20.4131 20.62V21.436H30.1811V20.62H20.4131ZM34.9461 17.032H32.6301V15.292H34.9461V17.032ZM35.8701 12.82H34.9461V14.512H32.6301V12.82H31.6941V17.824H35.8701V12.82ZM33.0621 20.032H39.3141V22.888H40.2981V19.24H33.0621V20.032ZM39.3501 12.136V14.932H37.9821V12.328H37.0461V18.532H37.9821V15.736H39.3501V18.58H40.2981V12.136H39.3501ZM46.8632 13.048C48.6272 13.048 49.6352 13.456 49.6352 14.176C49.6352 14.896 48.6272 15.304 46.8632 15.304C45.0992 15.304 44.0912 14.896 44.0912 14.176C44.0912 13.456 45.0992 13.048 46.8632 13.048ZM46.8632 16.036C49.2272 16.036 50.6432 15.388 50.6432 14.176C50.6432 12.964 49.2272 12.304 46.8632 12.304C44.4992 12.304 43.0832 12.964 43.0832 14.176C43.0832 15.388 44.4992 16.036 46.8632 16.036ZM44.1632 20.908H50.4872V18.484H43.1672V19.228H49.5152V20.188H43.2032V22.768H50.8112V22H44.1632V20.908ZM41.9912 16.768V17.56H51.7352V16.768H41.9912ZM61.8065 16.108C60.0905 16.444 58.5545 16.552 57.0305 16.564V12.664H56.0585V17.392H56.8985C58.5065 17.392 60.1145 17.272 61.9265 16.912L61.8065 16.108ZM58.0625 19.588H62.9225V21.94H58.0625V19.588ZM57.1025 22.732H63.8825V18.796H57.1025V22.732ZM65.4785 14.596H63.8825V12.124H62.8985V18.208H63.8825V15.412H65.4785V14.596ZM66.9556 13.288V14.08H70.9996C70.7956 16.636 69.3556 18.7 66.4636 20.08L66.9916 20.884C70.5676 19.132 71.9956 16.396 71.9956 13.288H66.9556ZM74.1676 12.124V22.888H75.1516V12.124H74.1676ZM81.5487 17.308H78.5727V13.852H81.5487V17.308ZM84.9807 14.824V16.324H82.5087V14.824H84.9807ZM82.5087 17.128H84.9807V19.984H85.9767V12.136H84.9807V14.02H82.5087V13.072H77.6007V18.088H82.5087V17.128ZM80.0367 21.844V19.288H79.0527V22.648H86.2287V21.844H80.0367ZM10.608 33.812C12.276 33.56 13.824 32.732 14.508 31.568C15.192 32.732 16.728 33.56 18.396 33.812L18.744 33.02C16.824 32.756 15 31.568 15 30.248H18.432V29.456H15V28.124H14.016V29.456H10.584V30.248H14.004C14.004 31.58 12.192 32.756 10.248 33.02L10.608 33.812ZM19.38 34.628H9.648V35.432H14.016V38.9H15V35.432H19.38V34.628ZM26.8091 33.344C25.2131 32.888 24.0971 31.736 24.0971 30.38V30.176H26.4731V29.384H24.0971V28.064H23.1131V29.384H20.7251V30.176H23.1131V30.38C23.1131 31.808 22.0211 33.056 20.4251 33.56L20.9051 34.328C22.1771 33.92 23.1611 33.044 23.6171 31.916C24.1091 32.96 25.1051 33.752 26.3411 34.124L26.8091 33.344ZM23.2571 35.84H28.3331V37.952H23.2571V35.84ZM22.2971 38.744H29.2931V35.06H22.2971V38.744ZM28.2971 28.124V31.124H26.1731V31.94H28.2971V34.496H29.2931V28.124H28.2971ZM36.0741 29.048C37.8381 29.048 38.8461 29.456 38.8461 30.176C38.8461 30.896 37.8381 31.304 36.0741 31.304C34.3101 31.304 33.3021 30.896 33.3021 30.176C33.3021 29.456 34.3101 29.048 36.0741 29.048ZM36.0741 32.036C38.4381 32.036 39.8541 31.388 39.8541 30.176C39.8541 28.964 38.4381 28.304 36.0741 28.304C33.7101 28.304 32.2941 28.964 32.2941 30.176C32.2941 31.388 33.7101 32.036 36.0741 32.036ZM33.3741 36.908H39.6981V34.484H32.3781V35.228H38.7261V36.188H32.4141V38.768H40.0221V38H33.3741V36.908ZM31.2021 32.768V33.56H40.9461V32.768H31.2021ZM49.6015 38.132C47.8735 38.132 46.9015 37.796 46.9015 37.148C46.9015 36.512 47.8735 36.164 49.6015 36.164C51.3415 36.164 52.3015 36.512 52.3015 37.148C52.3015 37.796 51.3415 38.132 49.6015 38.132ZM49.6015 35.432C47.2615 35.432 45.9175 36.032 45.9175 37.148C45.9175 38.276 47.2615 38.876 49.6015 38.876C51.9415 38.876 53.2855 38.276 53.2855 37.148C53.2855 36.032 51.9415 35.432 49.6015 35.432ZM50.0935 33.824V32.768H53.3335V32H46.9975V30.944H52.9855V30.2H46.9975V29.204H53.2735V28.436H46.0135V32.768H49.1095V33.824H44.7295V34.616H54.4735V33.824H50.0935ZM58.1945 35.576C57.3545 35.576 56.7665 34.892 56.7665 33.932C56.7665 32.996 57.3545 32.312 58.1945 32.312C59.0225 32.312 59.6225 32.996 59.6225 33.932C59.6225 34.892 59.0225 35.576 58.1945 35.576ZM58.1945 31.484C56.8625 31.484 55.8905 32.492 55.8905 33.932C55.8905 35.396 56.8625 36.392 58.1945 36.392C59.5265 36.392 60.4985 35.396 60.4985 33.932C60.4985 32.492 59.5265 31.484 58.1945 31.484ZM58.6745 28.436H57.7025V29.96H55.5185V30.764H60.8585V29.96H58.6745V28.436ZM63.7025 28.112V32.66H62.3225V28.364H61.3985V38.36H62.3225V33.464H63.7025V38.876H64.6505V28.112H63.7025ZM69.6939 29.288V30.08H73.7379C73.5339 32.636 72.0939 34.7 69.2019 36.08L69.7299 36.884C73.3059 35.132 74.7339 32.396 74.7339 29.288H69.6939ZM76.9059 28.124V38.888H77.8899V28.124H76.9059ZM86.0389 33.74H83.3629V29.996H86.0389V33.74ZM82.3789 33.74H80.7349V34.544H88.6669V33.74H87.0229V29.996H88.6909V29.204H80.7109V29.996H82.3789V33.74ZM79.8469 36.692V37.508H89.6029V36.692H79.8469ZM92.292 32.912H96.144V32.12H92.292V29.9H96.54V29.096H91.32V36.296H92.172C94.224 36.296 95.664 36.224 97.344 35.936L97.248 35.132C95.64 35.42 94.248 35.492 92.292 35.492V32.912ZM98.484 28.124V38.876H99.468V28.124H98.484ZM102.313 30.824L102.457 31.652L108.925 31.352C108.889 31.856 108.817 32.408 108.685 33.044L109.657 33.116C109.957 31.64 109.957 30.56 109.957 29.564V28.64H102.577V29.444H108.985V29.564C108.985 29.9 108.985 30.236 108.973 30.608L102.313 30.824ZM103.645 35.552H102.661V38.72H110.185V37.916H103.645V35.552ZM106.369 33.836V32.276H105.385V33.836H101.437V34.628H111.145V33.836H106.369ZM115.852 32.588C117.616 32.372 119.224 31.592 119.824 30.416C120.412 31.592 122.032 32.372 123.796 32.588L124.144 31.808C122.236 31.604 120.508 30.668 120.46 29.468H123.808V28.676H115.852V29.468H119.188C119.14 30.668 117.412 31.604 115.504 31.808L115.852 32.588ZM119.812 38.096C118.12 38.096 117.124 37.676 117.124 36.92C117.124 36.176 118.12 35.744 119.812 35.744C121.492 35.744 122.5 36.176 122.5 36.92C122.5 37.676 121.492 38.096 119.812 38.096ZM119.812 34.976C117.508 34.976 116.128 35.672 116.128 36.92C116.128 38.18 117.508 38.876 119.812 38.876C122.104 38.876 123.496 38.18 123.496 36.92C123.496 35.672 122.104 34.976 119.812 34.976ZM114.952 33.248V34.04H124.684V33.248H114.952ZM131.489 30.92V31.724H133.613V34.544H134.609V28.136H133.613V30.92H131.489ZM132.089 33.368C130.529 32.816 129.473 31.46 129.473 30.08V29.708H131.837V28.916H126.089V29.708H128.489V30.08C128.489 31.628 127.385 33.08 125.777 33.668L126.293 34.448C127.553 33.968 128.549 32.96 129.005 31.712C129.473 32.816 130.397 33.704 131.597 34.136L132.089 33.368ZM131.057 38.12C129.437 38.12 128.453 37.664 128.453 36.884C128.453 36.104 129.437 35.636 131.057 35.636C132.677 35.636 133.661 36.104 133.661 36.884C133.661 37.664 132.677 38.12 131.057 38.12ZM131.057 34.88C128.849 34.88 127.469 35.612 127.469 36.884C127.469 38.156 128.849 38.888 131.057 38.888C133.265 38.888 134.645 38.156 134.645 36.884C134.645 35.612 133.265 34.88 131.057 34.88ZM138.133 35.4863H136.908L136.773 29.4688H138.273L138.133 35.4863ZM136.732 37.3262C136.732 37.1035 136.805 36.9199 136.949 36.7754C137.094 36.627 137.291 36.5527 137.541 36.5527C137.791 36.5527 137.988 36.627 138.133 36.7754C138.277 36.9199 138.35 37.1035 138.35 37.3262C138.35 37.541 138.279 37.7207 138.139 37.8652C137.998 38.0098 137.799 38.082 137.541 38.082C137.283 38.082 137.084 38.0098 136.943 37.8652C136.803 37.7207 136.732 37.541 136.732 37.3262Z" fill="white"/>
</svg>
