<svg width="24" height="24" viewBox="0 0 24 24" fill="none" xmlns="http://www.w3.org/2000/svg">
  <path d="M10.8519 10.2284C11.2159 10.0776 11.606 10 12 10C12.394 10 12.7841 10.0776 13.1481 10.2284C13.512 10.3791 13.8427 10.6001 14.1213 10.8787C14.3999 11.1573 14.6209 11.488 14.7716 11.852C14.9224 12.2159 15 12.606 15 13C15 13.394 14.9224 13.7841 14.7716 14.1481C14.6209 14.512 14.3999 14.8427 14.1213 15.1213C13.8427 15.3999 13.512 15.6209 13.1481 15.7716C12.7841 15.9224 12.394 16 12 16C11.606 16 11.2159 15.9224 10.8519 15.7716C10.488 15.6209 10.1573 15.3999 9.87868 15.1213C9.6001 14.8427 9.37913 14.512 9.22836 14.1481C9.0776 13.7841 9 13.394 9 13C9 12.606 9.0776 12.2159 9.22836 11.8519C9.37913 11.488 9.6001 11.1573 9.87868 10.8787C10.1573 10.6001 10.488 10.3791 10.8519 10.2284Z" fill="#191919"/>
  <path fill-rule="evenodd" clip-rule="evenodd" d="M5 7C3.89543 7 3 7.89543 3 9V17C3 18.1046 3.89543 19 5 19H19C20.1046 19 21 18.1046 21 17V9C21 7.89543 20.1046 7 19 7H5ZM12 9C11.4747 9 10.9546 9.10346 10.4693 9.30448C9.98396 9.5055 9.54301 9.80014 9.17157 10.1716C8.80014 10.543 8.5055 10.984 8.30448 11.4693C8.10346 11.9546 8 12.4747 8 13C8 13.5253 8.10346 14.0454 8.30448 14.5307C8.5055 15.016 8.80014 15.457 9.17157 15.8284C9.54301 16.1999 9.98396 16.4945 10.4693 16.6955C10.9546 16.8965 11.4747 17 12 17C12.5253 17 13.0454 16.8965 13.5307 16.6955C14.016 16.4945 14.457 16.1999 14.8284 15.8284C15.1999 15.457 15.4945 15.016 15.6955 14.5307C15.8965 14.0454 16 13.5253 16 13C16 12.4747 15.8965 11.9546 15.6955 11.4693C15.4945 10.984 15.1999 10.543 14.8284 10.1716C14.457 9.80014 14.016 9.5055 13.5307 9.30448C13.0454 9.10346 12.5253 9 12 9Z" fill="#191919"/>
  <path d="M7.72361 5.55279C7.893 5.214 8.23926 5 8.61803 5H15.382C15.7607 5 16.107 5.214 16.2764 5.55279L17 7H7L7.72361 5.55279Z" fill="#191919"/>
</svg>
