<svg 
  width="72" 
  height="60"
  viewBox="0 0 72 60"
  fill="none"
  xmlns="http://www.w3.org/2000/svg"
  
   >
   <!-- <style>
    .RectBlue{
      stroke: #7692E4;
    }
    .pathBlue {
      fill : #7692E4;
    }
    
  </style> -->

<rect x="28.5" y="14.5" width="3" height="3" rx="0.5" stroke="#191919" />
<rect x="28.5" y="20.5" width="3" height="3" rx="0.5" stroke="#191919" />
<rect x="28.5" y="26.5" width="3" height="3" rx="0.5" stroke="#191919" />
<rect x="34.5" y="14.5" width="3" height="3" rx="0.5" stroke="#191919" />
<rect x="34.5" y="20.5" width="3" height="3" rx="0.5" stroke="#191919" />
<rect x="34.5" y="26.5" width="3" height="3" rx="0.5" stroke="#191919" />
<rect x="40.5" y="14.5" width="3" height="3" rx="0.5" stroke="#191919" />
<rect x="40.5" y="20.5" width="3" height="3" rx="0.5" stroke="#191919" />
<rect x="40.5" y="26.5" width="3" height="3" rx="0.5" stroke="#191919" />
<path d="M29.3372 46.7942H30.0693V38.1133H29.3372V46.7942ZM25.9533 41.6768C26.2502 40.9033 26.3849 40.0746 26.3883 39.2182H23.0182V39.8605H25.6218C25.4767 41.6768 24.5306 43.2445 22.6452 44.3633L23.0941 44.9157C24.3062 44.201 25.1452 43.3066 25.6701 42.2983H27.514V46.3522H28.2461V38.3481H27.514V41.6768H25.9533ZM37.419 46.808H38.1856V38.1133H37.419V46.808ZM34.1179 38.866H33.3514V40.4475C33.3445 42.0912 32.274 43.7486 30.9826 44.3425L31.466 44.9848C32.4847 44.4738 33.341 43.3722 33.7416 42.0635C34.1559 43.2997 35.0088 44.3287 35.9964 44.8122L36.466 44.2044C35.1884 43.6243 34.111 42.029 34.1179 40.4475V38.866ZM46.2122 38.1202H45.4456V44.5083H46.2122V41.4075H47.5174V40.7583H46.2122V38.1202ZM44.7964 42.3191C44.3821 42.3709 43.9435 42.4088 43.4981 42.4399V39.5635H44.3821V38.9351H39.6997V39.5635H40.5768V42.5573C40.1797 42.5642 39.8033 42.5677 39.4511 42.5677L39.5409 43.2099C41.0464 43.2099 43.0906 43.1685 44.8517 42.8992L44.7964 42.3191ZM42.7453 39.5635V42.4883C42.2688 42.5124 41.7888 42.5297 41.3227 42.5401V39.5635H42.7453ZM40.7771 43.9006V46.6008H46.6127V45.9655H41.5368V43.9006H40.7771Z"  fill="#191919"/>
</svg>


