<svg width="72" height="60" viewBox="0 0 72 60" fill="none" xmlns="http://www.w3.org/2000/svg">
<rect x="28" y="14" width="4" height="4" rx="1" fill="#191919"/>
<rect x="28" y="20" width="4" height="4" rx="1" fill="#191919"/>
<rect x="28" y="26" width="4" height="4" rx="1" fill="#191919"/>
<rect x="34" y="14" width="4" height="4" rx="1" fill="#191919"/>
<rect x="34" y="20" width="4" height="4" rx="1" fill="#191919"/>
<rect x="34" y="26" width="4" height="4" rx="1" fill="#191919"/>
<rect x="40" y="14" width="4" height="4" rx="1" fill="#191919"/>
<rect x="40" y="20" width="4" height="4" rx="1" fill="#191919"/>
<rect x="40" y="26" width="4" height="4" rx="1" fill="#191919"/>
<path d="M21.3355 41.6215V38.1133H20.5689V46.7942H21.3355V42.2776H22.7858V41.6215H21.3355ZM17.551 39.6464H19.5054V39.0041H14.7816V39.6464H16.7982V40.779C16.7913 42.2569 15.7209 43.9075 14.4709 44.5152L14.9336 45.1229C15.9073 44.6257 16.7775 43.5035 17.1815 42.2327C17.5717 43.4068 18.397 44.4289 19.3673 44.9088L19.8093 44.3011C18.5523 43.7003 17.5441 42.1671 17.551 40.779V39.6464ZM26.9518 42.2293C28.775 42.2362 30.0112 41.511 30.0112 40.3577C30.0112 39.1975 28.775 38.4655 26.9518 38.4586C25.1286 38.4655 23.8993 39.1975 23.8993 40.3577C23.8993 41.511 25.1286 42.2362 26.9518 42.2293ZM26.9518 39.087C28.3054 39.087 29.2239 39.5843 29.2239 40.3577C29.2239 41.1243 28.3054 41.6146 26.9518 41.6146C25.5982 41.6146 24.6797 41.1243 24.6866 40.3577C24.6797 39.5843 25.5982 39.087 26.9518 39.087ZM22.9946 43.058V43.6934H25.0596V46.7942H25.8469V43.6934H28.0775V46.7942H28.851V43.6934H30.9435V43.058H22.9946ZM40.3597 46.7942H41.0917V38.1133H40.3597V46.7942ZM36.9757 41.6768C37.2727 40.9033 37.4074 40.0746 37.4108 39.2182H34.0406V39.8605H36.6442C36.4992 41.6768 35.5531 43.2445 33.6677 44.3633L34.1166 44.9157C35.3286 44.201 36.1677 43.3066 36.6926 42.2983H38.5365V46.3522H39.2685V38.3481H38.5365V41.6768H36.9757ZM48.4415 46.808H49.2081V38.1133H48.4415V46.808ZM45.1404 38.866H44.3738V40.4475C44.3669 42.0912 43.2965 43.7486 42.005 44.3425L42.4885 44.9848C43.5071 44.4738 44.3635 43.3722 44.764 42.0635C45.1784 43.2997 46.0313 44.3287 47.0189 44.8122L47.4885 44.2044C46.2108 43.6243 45.1335 42.029 45.1404 40.4475V38.866ZM57.2346 38.1202H56.4681V44.5083H57.2346V41.4075H58.5399V40.7583H57.2346V38.1202ZM55.8189 42.3191C55.4045 42.3709 54.966 42.4088 54.5205 42.4399V39.5635H55.4045V38.9351H50.7222V39.5635H51.5993V42.5573C51.2022 42.5642 50.8258 42.5677 50.4736 42.5677L50.5634 43.2099C52.0689 43.2099 54.1131 43.1685 55.8741 42.8992L55.8189 42.3191ZM53.7678 39.5635V42.4883C53.2913 42.5124 52.8113 42.5297 52.3451 42.5401V39.5635H53.7678ZM51.7996 43.9006V46.6008H57.6352V45.9655H52.5592V43.9006H51.7996Z" fill="#191919"/>
</svg>
