<svg width="72" height="60" viewBox="0 0 72 60" fill="none" xmlns="http://www.w3.org/2000/svg">
<rect x="28" y="14" width="4" height="4" rx="1" fill="black"/>
<rect x="28" y="20" width="4" height="4" rx="1" fill="black"/>
<rect x="28" y="26" width="4" height="4" rx="1" fill="black"/>
<rect x="34" y="14" width="4" height="4" rx="1" fill="black"/>
<rect x="34" y="20" width="4" height="4" rx="1" fill="black"/>
<rect x="34" y="26" width="4" height="4" rx="1" fill="black"/>
<rect x="40" y="14" width="4" height="4" rx="1" fill="black"/>
<rect x="40" y="20" width="4" height="4" rx="1" fill="black"/>
<rect x="40" y="26" width="4" height="4" rx="1" fill="black"/>
<path d="M30.3372 46.7942H31.0693V38.1133H30.3372V46.7942ZM26.9533 41.6768C27.2502 40.9033 27.3849 40.0746 27.3883 39.2182H24.0182V39.8605H26.6218C26.4767 41.6768 25.5306 43.2445 23.6452 44.3633L24.0941 44.9157C25.3062 44.201 26.1452 43.3066 26.6701 42.2983H28.514V46.3522H29.2461V38.3481H28.514V41.6768H26.9533ZM38.419 46.808H39.1856V38.1133H38.419V46.808ZM35.1179 38.866H34.3514V40.4475C34.3445 42.0912 33.274 43.7486 31.9826 44.3425L32.466 44.9848C33.4847 44.4738 34.341 43.3722 34.7416 42.0635C35.1559 43.2997 36.0088 44.3287 36.9964 44.8122L37.466 44.2044C36.1884 43.6243 35.111 42.029 35.1179 40.4475V38.866ZM47.2122 38.1202H46.4456V44.5083H47.2122V41.4075H48.5174V40.7583H47.2122V38.1202ZM45.7964 42.3191C45.3821 42.3709 44.9435 42.4088 44.4981 42.4399V39.5635H45.3821V38.9351H40.6997V39.5635H41.5768V42.5573C41.1797 42.5642 40.8033 42.5677 40.4511 42.5677L40.5409 43.2099C42.0464 43.2099 44.0906 43.1685 45.8517 42.8992L45.7964 42.3191ZM43.7453 39.5635V42.4883C43.2688 42.5124 42.7888 42.5297 42.3227 42.5401V39.5635H43.7453ZM41.7771 43.9006V46.6008H47.6127V45.9655H42.5368V43.9006H41.7771Z" fill="black"/>
</svg>
