<svg width="75" height="60" viewBox="0 0 75 60" fill="none" xmlns="http://www.w3.org/2000/svg">
<path d="M42.4725 19.5H33.5275C33.7762 17.25 35.6837 15.5 38 15.5C40.3163 15.5 42.2238 17.25 42.4725 19.5Z" stroke="#7692E4"/>
<rect x="32.5" y="19.5" width="11" height="2" rx="1" stroke="#7692E4"/>
<path d="M33.1407 22.124C33.0661 21.5272 33.5315 21 34.133 21H41.8674C42.4689 21 42.9343 21.5272 42.8597 22.124L41.8597 30.124C41.7971 30.6245 41.3717 31 40.8674 31H35.133C34.6286 31 34.2032 30.6245 34.1407 30.124L33.1407 22.124Z" fill="#7692E4"/>
<path fill-rule="evenodd" clip-rule="evenodd" d="M40.9332 14.2498C41.0713 14.0107 40.9894 13.7049 40.7502 13.5668C40.5111 13.4288 40.2053 13.5107 40.0672 13.7498L39.2539 15.1585C39.5855 15.2442 39.9038 15.363 40.205 15.5112L40.9332 14.2498Z" fill="#7692E4"/>
<path d="M34.3359 39.0176H30.4004V39.6523H33.5742C33.54 40.1846 33.4521 40.6973 33.2959 41.1855L29.9609 41.4102L30.0879 42.084L33.0615 41.8008C32.5342 42.9678 31.5527 43.9736 29.9219 44.7695L30.3516 45.3555C33.4766 43.8174 34.3311 41.5225 34.3359 39.0176ZM35.791 46.791H36.5527V42.2891H37.959V41.6445H36.5527V38.1094H35.791V46.791ZM45.6973 38.1094H44.9551V46.791H45.6973V38.1094ZM38.1289 43.9883L38.2266 44.6426C39.3594 44.6475 41.1807 44.6035 42.5527 44.3496L42.5039 43.7832C42.2158 43.8223 41.9033 43.8516 41.5762 43.8809V39.8574H42.3086V39.2227H38.3145V39.8574H39.0469V43.9834C38.71 43.9883 38.3975 43.9883 38.1289 43.9883ZM39.75 43.9688V39.8574H40.8633V43.9248C40.4922 43.9443 40.1113 43.959 39.75 43.9688ZM42.0547 42.1035H43.2656V46.332H43.998V38.3242H43.2656V41.4102H42.0547V42.1035Z" fill="#7692E4"/>
</svg>
