<svg width="72" height="60" viewBox="0 0 72 60" fill="none" xmlns="http://www.w3.org/2000/svg">
<path d="M40.4725 19.5H31.5275C31.7762 17.25 33.6837 15.5 36 15.5C38.3163 15.5 40.2238 17.25 40.4725 19.5Z" stroke="#191919"/>
<rect x="30.5" y="19.5" width="11" height="2" rx="1" stroke="#191919"/>
<path d="M31.6366 22.062C31.5993 21.7636 31.832 21.5 32.1328 21.5H39.8672C40.168 21.5 40.4007 21.7636 40.3634 22.062L39.3634 30.062C39.3321 30.3122 39.1194 30.5 38.8672 30.5H33.1328C32.8806 30.5 32.6679 30.3122 32.6366 30.062L31.6366 22.062Z" stroke="#191919"/>
<path fill-rule="evenodd" clip-rule="evenodd" d="M38.9332 14.25C39.0713 14.0108 38.9894 13.705 38.7502 13.5669C38.5111 13.4289 38.2053 13.5108 38.0672 13.75L37.2539 15.1586C37.5855 15.2443 37.9038 15.3631 38.205 15.5113L38.9332 14.25Z" fill="#191919"/>
<path d="M32.3359 39.0176H28.4004V39.6523H31.5742C31.54 40.1846 31.4521 40.6973 31.2959 41.1855L27.9609 41.4102L28.0879 42.084L31.0615 41.8008C30.5342 42.9678 29.5527 43.9736 27.9219 44.7695L28.3516 45.3555C31.4766 43.8174 32.3311 41.5225 32.3359 39.0176ZM33.791 46.791H34.5527V42.2891H35.959V41.6445H34.5527V38.1094H33.791V46.791ZM43.6973 38.1094H42.9551V46.791H43.6973V38.1094ZM36.1289 43.9883L36.2266 44.6426C37.3594 44.6475 39.1807 44.6035 40.5527 44.3496L40.5039 43.7832C40.2158 43.8223 39.9033 43.8516 39.5762 43.8809V39.8574H40.3086V39.2227H36.3145V39.8574H37.0469V43.9834C36.71 43.9883 36.3975 43.9883 36.1289 43.9883ZM37.75 43.9688V39.8574H38.8633V43.9248C38.4922 43.9443 38.1113 43.959 37.75 43.9688ZM40.0547 42.1035H41.2656V46.332H41.998V38.3242H41.2656V41.4102H40.0547V42.1035Z" fill="#191919"/>
</svg>
