<svg width="72" height="60" viewBox="0 0 72 60" fill="none" xmlns="http://www.w3.org/2000/svg">
<path d="M40.4725 19.5H31.5275C31.7762 17.25 33.6837 15.5 36 15.5C38.3163 15.5 40.2238 17.25 40.4725 19.5Z" stroke="#191919"/>
<rect x="30.5" y="19.5" width="11" height="2" rx="1" stroke="#191919"/>
<path d="M31.6366 22.062C31.5993 21.7636 31.832 21.5 32.1328 21.5H39.8672C40.168 21.5 40.4007 21.7636 40.3634 22.062L39.3634 30.062C39.3321 30.3122 39.1194 30.5 38.8672 30.5H33.1328C32.8806 30.5 32.6679 30.3122 32.6366 30.062L31.6366 22.062Z" stroke="#191919"/>
<path fill-rule="evenodd" clip-rule="evenodd" d="M38.9332 14.2499C39.0713 14.0108 38.9894 13.705 38.7502 13.5669C38.5111 13.4288 38.2053 13.5108 38.0672 13.7499L37.2539 15.1586C37.5855 15.2442 37.9038 15.363 38.205 15.5113L38.9332 14.2499Z" fill="#191919"/>
<path d="M25.5318 41.6492V38.1133H24.7652V46.7873H25.5318V42.2845H26.9406V41.6492H25.5318ZM19.3785 39.018V39.6533H22.5518C22.5138 40.1851 22.4275 40.6961 22.2756 41.183L18.9365 41.4144L19.0608 42.0843L22.0408 41.8046C21.509 42.9717 20.5318 43.9765 18.9019 44.7707L19.3301 45.3508C22.4517 43.8177 23.308 41.5249 23.3149 39.018H19.3785ZM33.9313 46.7942H34.6702V38.1133H33.9313V46.7942ZM31.0307 41.4144V42.105H32.2393V46.3315H32.9713V38.3273H32.2393V41.4144H31.0307ZM30.5542 39.8605H31.2862V39.2251H27.2945V39.8605H28.0266V43.9834C27.6882 43.9903 27.3774 43.9903 27.1081 43.9903L27.2047 44.6464C28.3373 44.6464 30.1606 44.605 31.5349 44.3494L31.4796 43.7831C31.193 43.8211 30.8788 43.8522 30.5542 43.8798V39.8605ZM29.8429 39.8605V43.9247C29.4665 43.9454 29.0901 43.9593 28.7241 43.9696V39.8605H29.8429ZM42.1872 39.1077V38.0649H41.4275V39.1077H38.2715V39.7431H45.3088V39.1077H42.1872ZM41.8074 43.134C43.5753 43.1271 44.6389 42.6091 44.6389 41.6906C44.6389 40.7583 43.5753 40.2403 41.8074 40.2403C40.0325 40.2403 38.969 40.7583 38.9759 41.6906C38.969 42.6091 40.0325 43.1271 41.8074 43.134ZM41.8074 40.8273C43.0919 40.8273 43.8447 41.145 43.8516 41.6906C43.8447 42.2293 43.0919 42.547 41.8074 42.5401C40.5159 42.547 39.7632 42.2293 39.7701 41.6906C39.7632 41.145 40.5159 40.8273 41.8074 40.8273ZM37.8571 43.7348V44.3702H41.4275V46.808H42.1872V44.3702H45.806V43.7348H37.8571ZM52.6585 46.7942H53.4251V38.1133H52.6585V46.7942ZM46.7607 39.0594V39.6809H50.0756C49.9064 41.7528 48.7082 43.424 46.3602 44.5359L46.7745 45.1644C49.6889 43.7624 50.8491 41.5525 50.856 39.0594H46.7607Z" fill="#191919"/>
</svg>
