<svg width="75" height="60" viewBox="0 0 75 60" fill="none" xmlns="http://www.w3.org/2000/svg">
<path d="M42.4725 19.5H33.5275C33.7762 17.25 35.6837 15.5 38 15.5C40.3163 15.5 42.2238 17.25 42.4725 19.5Z" stroke="#191919"/>
<rect x="32.5" y="19.5" width="11" height="2" rx="1" stroke="#191919"/>
<path d="M33.1407 22.124C33.0661 21.5272 33.5315 21 34.133 21H41.8674C42.4689 21 42.9343 21.5272 42.8597 22.124L41.8597 30.124C41.7971 30.6245 41.3717 31 40.8674 31H35.133C34.6286 31 34.2032 30.6245 34.1407 30.124L33.1407 22.124Z" fill="#191919"/>
<path fill-rule="evenodd" clip-rule="evenodd" d="M40.9332 14.2498C41.0713 14.0107 40.9894 13.7049 40.7502 13.5668C40.5111 13.4288 40.2053 13.5107 40.0672 13.7498L39.2539 15.1585C39.5855 15.2442 39.9038 15.363 40.205 15.5112L40.9332 14.2498Z" fill="#191919"/>
<path d="M25.3135 39.0176H21.3779V39.6523H24.5518C24.5176 40.1846 24.4297 40.6973 24.2734 41.1855L20.9385 41.4102L21.0654 42.084L24.0391 41.8008C23.5117 42.9678 22.5303 43.9736 20.8994 44.7695L21.3291 45.3555C24.4541 43.8174 25.3086 41.5225 25.3135 39.0176ZM26.7686 46.791H27.5303V42.2891H28.9365V41.6445H27.5303V38.1094H26.7686V46.791ZM36.6748 38.1094H35.9326V46.791H36.6748V38.1094ZM29.1064 43.9883L29.2041 44.6426C30.3369 44.6475 32.1582 44.6035 33.5303 44.3496L33.4814 43.7832C33.1934 43.8223 32.8809 43.8516 32.5537 43.8809V39.8574H33.2861V39.2227H29.292V39.8574H30.0244V43.9834C29.6875 43.9883 29.375 43.9883 29.1064 43.9883ZM30.7275 43.9688V39.8574H31.8408V43.9248C31.4697 43.9443 31.0889 43.959 30.7275 43.9688ZM33.0322 42.1035H34.2432V46.332H34.9756V38.3242H34.2432V41.4102H33.0322V42.1035ZM47.3076 39.1055H44.1826V38.0605H43.4307V39.1055H40.2666V39.7402H47.3076V39.1055ZM39.8564 44.3691H43.4307V46.8105H44.1826V44.3691H47.8057V43.7344H39.8564V44.3691ZM40.9795 41.6934C40.9697 42.6113 42.0342 43.1289 43.8115 43.1387C45.5742 43.1289 46.6387 42.6113 46.6436 41.6934C46.6387 40.7559 45.5742 40.2383 43.8115 40.2383C42.0342 40.2383 40.9697 40.7559 40.9795 41.6934ZM41.7705 41.6934C41.7607 41.1465 42.5176 40.8291 43.8115 40.8242C45.0908 40.8291 45.8428 41.1465 45.8525 41.6934C45.8428 42.2305 45.0908 42.5479 43.8115 42.543C42.5176 42.5479 41.7607 42.2305 41.7705 41.6934ZM55.4268 38.1094H54.6553V46.791H55.4268V38.1094ZM48.3564 44.5352L48.7764 45.1602C51.6865 43.7637 52.8486 41.5518 52.8584 39.0566H48.7568V39.6816H52.0771C51.9062 41.7568 50.7051 43.4219 48.3564 44.5352Z" fill="#191919"/>
</svg>
