<svg 
width="72" 
height="60" 
viewBox="0 0 72 60" 
fill="none" 
xmlns="http://www.w3.org/2000/svg">
<path 
fill-rule="evenodd" 
clip-rule="evenodd" 
d="M36 21C37.6569 21 39 19.6569 39 18C39 16.3431 37.6569 15 36 15C34.3431 15 33 16.3431 33 18C33 19.6569 34.3431 21 36 21ZM36 22C38.2091 22 40 20.2091 40 18C40 15.7909 38.2091 14 36 14C33.7909 14 32 15.7909 32 18C32 20.2091 33.7909 22 36 22Z" 
fill="#191919"/>
<path fill-rule="evenodd" 
clip-rule="evenodd" 
d="M29.3708 28.7445C29.3277 28.8711 29.4237 29 29.5575 29H42.442C42.5757 29 42.6718 28.8711 42.6287 28.7445C41.69 25.9845 39.0755 24 35.9997 24C32.924 24 30.3094 25.9845 29.3708 28.7445ZM28.281 28.8898C28.1227 29.47 28.5927 30 29.1941 30H42.8054C43.4068 30 43.8767 29.47 43.7185 28.8898C42.7927 25.4954 39.6876 23 35.9997 23C32.3118 23 29.2068 25.4954 28.281 28.8898Z" 
fill="#191919"/>
<path 
d="M34.5542 41.5801V38.1133H33.7877V46.7942H34.5542V42.2362H36.0045V41.5801H34.5542ZM32.1993 44.5843V38.9903H28.1937V44.5843H32.1993ZM31.4327 39.605V43.9558H28.9396V39.605H31.4327ZM42.6153 38.1133V46.808H43.3819V38.1133H42.6153ZM38.7686 38.7831C37.4703 38.7901 36.5518 39.9641 36.5518 41.808C36.5518 43.6588 37.4703 44.8329 38.7686 44.8329C40.0532 44.8329 40.9855 43.6588 40.9855 41.808C40.9855 39.9641 40.0532 38.7901 38.7686 38.7831ZM38.7686 39.4669C39.6388 39.4738 40.2396 40.3992 40.2396 41.808C40.2396 43.2238 39.6388 44.1492 38.7686 44.1492C37.8985 44.1492 37.2907 43.2238 37.2907 41.808C37.2907 40.3992 37.8985 39.4738 38.7686 39.4669Z" 
fill="#191919"/>
</svg>
