<svg width="72" height="60" viewBox="0 0 72 60" fill="none" xmlns="http://www.w3.org/2000/svg">
<path d="M40.4725 19.5H31.5275C31.7762 17.25 33.6837 15.5 36 15.5C38.3163 15.5 40.2238 17.25 40.4725 19.5Z" stroke="#7692E4"/>
<rect x="30.5" y="19.5" width="11" height="2" rx="1" stroke="#7692E4"/>
<path d="M31.1407 22.124C31.0661 21.5272 31.5315 21 32.133 21H39.8674C40.4689 21 40.9343 21.5272 40.8597 22.124L39.8597 30.124C39.7971 30.6245 39.3717 31 38.8674 31H33.133C32.6286 31 32.2032 30.6245 32.1407 30.124L31.1407 22.124Z" fill="#7692E4"/>
<path fill-rule="evenodd" clip-rule="evenodd" d="M38.9332 14.2498C39.0713 14.0107 38.9894 13.7049 38.7502 13.5668C38.5111 13.4288 38.2053 13.5107 38.0672 13.7498L37.2539 15.1585C37.5855 15.2442 37.9038 15.363 38.205 15.5112L38.9332 14.2498Z" fill="#7692E4"/>
<path d="M20.004 38.1133V46.808H20.7706V38.1133H20.004ZM16.1573 38.7831C14.859 38.7901 13.9405 39.9641 13.9405 41.808C13.9405 43.6588 14.859 44.8329 16.1573 44.8329C17.4418 44.8329 18.3742 43.6588 18.3742 41.808C18.3742 39.9641 17.4418 38.7901 16.1573 38.7831ZM16.1573 39.4669C17.0275 39.4738 17.6283 40.3992 17.6283 41.808C17.6283 43.2238 17.0275 44.1492 16.1573 44.1492C15.2872 44.1492 14.6794 43.2238 14.6794 41.808C14.6794 40.3992 15.2872 39.4738 16.1573 39.4669ZM28.7971 38.1133H28.0306V42.4917H28.7971V40.5925H30.1024V39.9503H28.7971V38.1133ZM27.0775 41.2348C25.8897 41.4731 24.8676 41.5352 23.1618 41.5318V39.2459H26.2626V38.6174H22.409V42.1533H23.0789C24.8676 42.1602 25.9311 42.1119 27.1742 41.8494L27.0775 41.2348ZM28.7971 45.0608V42.9268H23.2585V43.5483H28.0375V44.4599H23.2792V46.6768H29.1148V46.0483H24.0319V45.0608H28.7971ZM36.7546 38.1133V46.808H37.5212V38.1133H36.7546ZM33.2394 38.7486C31.872 38.7486 30.8914 39.5773 30.8983 40.7859C30.8914 41.9945 31.872 42.8232 33.2394 42.8232C34.6068 42.8232 35.5737 41.9945 35.5806 40.7859C35.5737 39.5773 34.6068 38.7486 33.2394 38.7486ZM33.2394 39.4185C34.1579 39.4185 34.8278 39.9779 34.8278 40.7859C34.8278 41.5939 34.1579 42.1533 33.2394 42.1533C32.314 42.1533 31.6441 41.5939 31.651 40.7859C31.6441 39.9779 32.314 39.4185 33.2394 39.4185ZM30.553 44.895C32.1207 44.895 34.2546 44.8881 36.2436 44.5152L36.1814 43.9489C34.2615 44.232 32.0516 44.2459 30.4494 44.239L30.553 44.895ZM47.7523 46.7942H48.4912V38.1133H47.7523V46.7942ZM44.6998 41.3867V39.1285H41.3711V44.453H44.6998V42.029H46.0119V46.3522H46.7509V38.2997H46.0119V41.3867H44.6998ZM42.0962 43.8384V39.7431H43.9747V43.8384H42.0962ZM51.2277 41.0483V38.5552H50.4542V41.6837H56.428V41.0483H51.2277ZM49.446 42.9475V43.576H51.5109V46.7942H52.2775V43.576H54.5288V46.7942H55.2954V43.576H57.3603V42.9475H49.446Z" fill="#7692E4"/>
</svg>
