<svg width="72" height="60" viewBox="0 0 72 60" fill="none" xmlns="http://www.w3.org/2000/svg">
<path d="M40.4725 19.5H31.5275C31.7762 17.25 33.6837 15.5 36 15.5C38.3163 15.5 40.2238 17.25 40.4725 19.5Z" stroke="#7692E4"/>
<rect x="30.5" y="19.5" width="11" height="2" rx="1" stroke="#7692E4"/>
<path d="M31.1407 22.124C31.0661 21.5272 31.5315 21 32.133 21H39.8674C40.4689 21 40.9343 21.5272 40.8597 22.124L39.8597 30.124C39.7971 30.6245 39.3717 31 38.8674 31H33.133C32.6286 31 32.2032 30.6245 32.1407 30.124L31.1407 22.124Z" fill="#7692E4"/>
<path fill-rule="evenodd" clip-rule="evenodd" d="M38.9332 14.2498C39.0713 14.0107 38.9894 13.7049 38.7502 13.5668C38.5111 13.4288 38.2053 13.5107 38.0672 13.7498L37.2539 15.1585C37.5855 15.2442 37.9038 15.363 38.205 15.5112L38.9332 14.2498Z" fill="#7692E4"/>
<path d="M30.3234 46.7942H31.0555V38.1133H30.3234V46.7942ZM27.4505 41.2417V41.8702H28.5555V46.3315H29.2806V38.3273H28.5555V41.2417H27.4505ZM24.6743 42.0704H27.0292V39.0801H23.9146V39.7155H26.2903V41.442H23.9284V44.6533H24.5085C25.6066 44.6464 26.6011 44.6188 27.8372 44.3978L27.782 43.7624C26.6218 43.9662 25.6756 44.0007 24.6743 44.0041V42.0704ZM38.419 46.808H39.1856V38.1133H38.419V46.808ZM35.1179 38.866H34.3514V40.4475C34.3445 42.0912 33.274 43.7486 31.9826 44.3425L32.466 44.9848C33.4847 44.4738 34.341 43.3722 34.7416 42.0635C35.1559 43.2997 36.0088 44.3287 36.9964 44.8122L37.466 44.2044C36.1884 43.6243 35.111 42.029 35.1179 40.4475V38.866ZM46.8323 46.7942H47.5989V38.1133H46.8323V46.7942ZM44.6155 39.6878H45.5962V39.0525H40.6376V39.6878H41.6183V43.9765C41.1935 43.9834 40.7861 43.9834 40.4097 43.9834L40.4995 44.6395C42.1086 44.6326 44.2011 44.605 46.0934 44.308L46.052 43.7348C45.5892 43.7901 45.1058 43.8315 44.6155 43.866V39.6878ZM43.8627 39.6878V43.9109C43.3586 43.9351 42.8544 43.9523 42.3641 43.9627V39.6878H43.8627Z" fill="#7692E4"/>
</svg>
