<svg width="32" height="27" viewBox="0 0 32 27" fill="none" xmlns="http://www.w3.org/2000/svg">
<g clip-path="url(#clip0_1303_7384)">
<path d="M27.2156 17.0394C26.2883 18.028 25.3616 19.0183 24.405 19.9783C23.4995 20.8876 22.5638 21.7704 21.681 22.7028C21.2273 23.1806 20.7976 23.6754 20.3731 24.1792C20.199 24.3864 20.0135 24.5807 19.8309 24.7802C19.7294 24.8912 19.6374 25.0076 19.547 25.1261L19.4991 25.19C19.3284 25.0977 19.1596 25.001 18.9883 24.9189C18.5552 24.7096 18.1178 24.5101 17.7007 24.2647C16.9103 23.7996 16.1644 23.2455 15.3903 22.7523C13.7833 21.7267 12.1841 20.7636 10.4527 19.9515C8.7109 19.1361 6.92273 18.3723 5.11397 17.7027C3.81242 17.2203 2.51795 16.7396 1.23652 16.1966C1.30806 15.9619 1.29224 15.7092 1.19197 15.4847C1.30194 15.2955 1.40191 15.1006 1.49147 14.901C1.7682 14.2378 1.92399 13.5213 2.08765 12.8227C2.41358 11.4406 3.02068 10.1118 3.50449 8.77966C4.02089 7.36767 4.61461 5.98586 5.12943 4.57449C5.37067 3.9114 5.60325 3.24711 5.87089 2.59566L6.05098 2.15163L6.13187 2.3077C6.50168 2.98303 6.79407 3.69762 7.00348 4.4379C7.21492 5.19727 7.38054 5.96522 7.64716 6.70967C7.9317 7.51175 8.25765 8.30331 8.49031 9.12176C8.5196 9.21672 8.54133 9.31383 8.5553 9.41216C8.57624 9.55611 8.6074 9.69842 8.64853 9.83803C8.6996 10.0116 8.7874 10.1723 8.90599 10.3092C9.02458 10.4462 9.1712 10.5563 9.33593 10.632C10.0609 10.9596 10.8319 10.3758 11.443 10.0237C12.9121 9.18236 14.2965 8.18464 15.7049 7.24855C16.5101 6.71248 17.3134 6.17167 18.1285 5.65176C18.3556 5.50593 18.5828 5.36011 18.8042 5.20651C18.7913 5.43242 18.7778 5.65943 18.76 5.88451C18.6578 6.89569 18.6446 7.91409 18.7205 8.92804C18.906 10.9938 19.1078 13.0406 19.1985 15.1129C19.2473 16.235 20.143 16.4822 21.1041 16.346C22.173 16.1946 23.2554 16.0962 24.329 15.9965C25.4027 15.8969 26.5057 15.8259 27.595 15.7593C27.893 15.7416 28.1924 15.7271 28.4909 15.7083C28.0523 16.1429 27.6348 16.5922 27.2156 17.0394Z" fill="#FFA800"/>
</g>
<defs>
<clipPath id="clip0_1303_7384">
<rect width="26" height="18" fill="white" transform="translate(7.26416) rotate(23.8009)"/>
</clipPath>
</defs>
</svg>
