<svg width="32" height="27" viewBox="0 0 32 27" fill="none" xmlns="http://www.w3.org/2000/svg">
<g clip-path="url(#clip0_1303_7387)">
<path d="M27.4812 17.0394C26.5539 18.028 25.6273 19.0183 24.6706 19.9783C23.7652 20.8876 22.8294 21.7704 21.9466 22.7028C21.4929 23.1806 21.0632 23.6755 20.6387 24.1792C20.4646 24.3864 20.2791 24.5807 20.0965 24.7802C19.9951 24.8912 19.903 25.0076 19.8126 25.1261L19.7647 25.19C19.594 25.0977 19.4252 25.001 19.2539 24.9189C18.8208 24.7096 18.3835 24.5101 17.9664 24.2647C17.176 23.7996 16.43 23.2455 15.656 22.7523C14.0489 21.7267 12.4498 20.7636 10.7183 19.9515C8.97652 19.1361 7.18835 18.3723 5.3796 17.7027C4.07805 17.2203 2.78358 16.7396 1.50214 16.1966C1.57368 15.9619 1.55786 15.7092 1.45759 15.4847C1.56756 15.2955 1.66753 15.1006 1.75709 14.901C2.03383 14.2378 2.18961 13.5213 2.35328 12.8227C2.67921 11.4406 3.28631 10.1118 3.77012 8.77966C4.28652 7.36767 4.88023 5.98586 5.39505 4.57449C5.6363 3.9114 5.86888 3.24711 6.13651 2.59566L6.3166 2.15163L6.39749 2.3077C6.76731 2.98303 7.05969 3.69762 7.26911 4.4379C7.48055 5.19727 7.64617 5.96522 7.91279 6.70967C8.19732 7.51175 8.52328 8.30331 8.75593 9.12176C8.78522 9.21672 8.80695 9.31383 8.82092 9.41216C8.84187 9.55611 8.87302 9.69843 8.91415 9.83803C8.96523 10.0116 9.05303 10.1723 9.17162 10.3092C9.29021 10.4462 9.43682 10.5563 9.60155 10.632C10.3265 10.9596 11.0976 10.3758 11.7086 10.0237C13.1777 9.18236 14.5621 8.18464 15.9705 7.24855C16.7757 6.71248 17.579 6.17167 18.3941 5.65176C18.6213 5.50593 18.8484 5.36011 19.0699 5.20651C19.0569 5.43242 19.0435 5.65943 19.0256 5.88451C18.9235 6.89569 18.9102 7.91409 18.9861 8.92804C19.1716 10.9938 19.3734 13.0406 19.4641 15.1129C19.5129 16.235 20.4087 16.4822 21.3697 16.346C22.4387 16.1946 23.521 16.0962 24.5946 15.9965C25.6683 15.8969 26.7713 15.8259 27.8606 15.7593C28.1587 15.7416 28.458 15.7271 28.7565 15.7083C28.3179 16.1429 27.9004 16.5922 27.4812 17.0394Z" fill="#C7C7C7"/>
</g>
<defs>
<clipPath id="clip0_1303_7387">
<rect width="26" height="18" fill="white" transform="translate(7.26416) rotate(23.8009)"/>
</clipPath>
</defs>
</svg>
