<svg width="102" height="24" viewBox="0 0 102 24" fill="none" xmlns="http://www.w3.org/2000/svg">
<path d="M0.756219 24H22.3733C23.0471 24 23.3845 23.1922 22.9081 22.7197L1.29095 1.28038C0.814555 0.807904 0 1.14253 0 1.81071V23.25C0 23.6643 0.338571 24 0.756219 24Z" fill="#FCB2C3"/>
<path d="M24.9551 0.75C24.9551 0.335786 25.2936 0 25.7113 0H30.2486C30.6663 0 31.0048 0.335786 31.0048 0.75V23.25C31.0048 23.6642 30.6663 24 30.2486 24H25.7113C25.2936 24 24.9551 23.6642 24.9551 23.25V0.75Z" fill="#7692E4"/>
<path d="M31.7607 0.75C31.7607 0.335786 32.0993 0 32.517 0H37.0543C37.4719 0 37.8105 0.335786 37.8105 0.75V23.25C37.8105 23.6642 37.4719 24 37.0543 24H32.517C32.0993 24 31.7607 23.6642 31.7607 23.25V0.75Z" fill="#7692E4"/>
<path d="M63.5225 0.75C63.5225 0.335786 63.861 0 64.2787 0H68.816C69.2337 0 69.5722 0.335786 69.5722 0.75V23.25C69.5722 23.6642 69.2337 24 68.816 24H64.2787C63.861 24 63.5225 23.6642 63.5225 23.25V0.75Z" fill="#7692E4"/>
<path d="M95.2832 0.75C95.2832 0.335786 95.6218 0 96.0394 0H100.577C100.994 0 101.333 0.335786 101.333 0.75V23.25C101.333 23.6642 100.994 24 100.577 24H96.0394C95.6218 24 95.2832 23.6642 95.2832 23.25V0.75Z" fill="#7692E4"/>
<path d="M93.2366 1.28033C93.713 0.807855 93.3756 0 92.7019 0H72.1542C71.4805 0 71.1431 0.807855 71.6195 1.28033L82.4281 12L93.2366 1.28033Z" fill="#7692E4"/>
<path d="M71.6195 22.7197C71.1431 23.1921 71.4805 24 72.1542 24H92.7019C93.3756 24 93.713 23.1921 93.2366 22.7197L82.4281 12L71.6195 22.7197Z" fill="#7692E4"/>
<path d="M62.2186 22.9147C62.47 23.4133 62.1044 24.0001 61.5422 24.0001H39.7904C39.2282 24.0001 38.8626 23.4133 39.114 22.9147L49.9899 1.34171C50.2686 0.788927 51.064 0.788927 51.3427 1.34171L62.2186 22.9147Z" fill="#7692E4"/>
</svg>
