<svg width="137" height="19" viewBox="0 0 137 19" fill="none" xmlns="http://www.w3.org/2000/svg">
<path d="M12.336 0V18.24H16.848V0H12.336ZM5.376 0.192C3.616 0.192 2.28 0.656001 1.368 1.584C0.456 2.512 0 3.872 0 5.664V12.048C0 13.84 0.456 15.2 1.368 16.128C2.28 17.056 3.616 17.52 5.376 17.52C7.136 17.52 8.472 17.056 9.384 16.128C10.296 15.2 10.752 13.84 10.752 12.048V5.664C10.752 3.872 10.296 2.512 9.384 1.584C8.472 0.656001 7.136 0.192 5.376 0.192ZM5.376 3.792C5.968 3.792 6.264 4.096 6.264 4.704V13.008C6.264 13.616 5.968 13.92 5.376 13.92C4.784 13.92 4.488 13.616 4.488 13.008V4.704C4.488 4.096 4.784 3.792 5.376 3.792Z" fill="#7692E4"/>
<path d="M40.8003 6.936H42.6003V10.536H40.8003V18.24H36.2883V0H40.8003V6.936ZM24.0003 0.192H34.2483V3.792C34.2483 6.56 33.8243 8.984 32.9763 11.064C32.1443 13.128 30.9683 14.72 29.4483 15.84C27.9443 16.96 26.2083 17.52 24.2403 17.52L23.7603 13.92C24.6243 13.92 25.5043 13.616 26.4003 13.008C27.3123 12.4 28.0643 11.424 28.6563 10.08H24.2403V6.48H29.5683C29.6803 5.712 29.7363 4.816 29.7363 3.792H24.0003V0.192Z" fill="#FCB2C3"/>
<path d="M53.0393 7.2V0H57.0473V18H53.0393V10.8H51.7913L51.6953 13.896H52.3193V17.52H44.0393V13.896H44.6633L44.3993 4.488H47.7833L47.8793 13.896H48.4793L48.5753 4.488H51.9593L51.8873 7.2H53.0393ZM57.7673 0H61.7993V18.24H57.7673V0ZM52.3193 0.144001V3.768H44.0393V0.144001H52.3193Z" fill="#FCB2C3"/>
<path d="M85.8 0V18.24H81.288V10.536H79.8V12.6C79.8 14.376 79.344 15.72 78.432 16.632C77.52 17.544 76.176 18 74.4 18C72.624 18 71.28 17.544 70.368 16.632C69.456 15.72 69 14.376 69 12.6V5.4C69 3.624 69.456 2.28 70.368 1.368C71.28 0.456 72.624 0 74.4 0C76.176 0 77.52 0.456 78.432 1.368C79.344 2.28 79.8 3.624 79.8 5.4V6.936H81.288V0H85.8ZM75.24 4.44C75.24 3.88 74.96 3.6 74.4 3.6C73.84 3.6 73.56 3.88 73.56 4.44V13.56C73.56 14.12 73.84 14.4 74.4 14.4C74.96 14.4 75.24 14.12 75.24 13.56V4.44Z" fill="#7692E4"/>
<path d="M100.976 0V18.24H105.488V0H100.976ZM93.1755 13.92V3.84H98.8875V0.24H88.6875V17.52H99.3675V13.92H93.1755Z" fill="#7692E4"/>
<path d="M108.375 5.4C108.375 3.624 108.831 2.28 109.743 1.368C110.655 0.456 111.999 0 113.775 0C115.551 0 116.895 0.456 117.807 1.368C118.719 2.28 119.175 3.624 119.175 5.4V12.6C119.175 14.376 118.719 15.72 117.807 16.632C116.895 17.544 115.551 18 113.775 18C111.999 18 110.655 17.544 109.743 16.632C108.831 15.72 108.375 14.376 108.375 12.6V5.4ZM125.175 0H120.663V18.24H125.175V14.4H126.975V10.776H125.175V7.176H126.975V3.552H125.175V0ZM112.935 13.56C112.935 14.12 113.215 14.4 113.775 14.4C114.335 14.4 114.615 14.12 114.615 13.56V4.44C114.615 3.88 114.335 3.6 113.775 3.6C113.215 3.6 112.935 3.88 112.935 4.44V13.56Z" fill="#7692E4"/>
<path d="M131.534 13.968C132.174 13.968 132.702 14.176 133.118 14.592C133.55 15.008 133.766 15.552 133.766 16.224C133.766 16.896 133.55 17.44 133.118 17.856C132.702 18.272 132.174 18.48 131.534 18.48C130.894 18.48 130.358 18.264 129.926 17.832C129.494 17.4 129.278 16.864 129.278 16.224C129.278 15.552 129.494 15.008 129.926 14.592C130.358 14.176 130.894 13.968 131.534 13.968ZM136.598 4.488C136.598 5.064 136.558 5.584 136.478 6.048C136.414 6.512 136.302 6.952 136.142 7.368C135.998 7.784 135.798 8.2 135.542 8.616C135.302 9.016 135.014 9.448 134.678 9.912C134.246 10.488 133.926 10.984 133.718 11.4C133.51 11.8 133.406 12.28 133.406 12.84H129.566C129.566 12.296 129.598 11.816 129.662 11.4C129.742 10.968 129.846 10.568 129.974 10.2C130.118 9.832 130.294 9.48 130.502 9.144C130.71 8.808 130.942 8.456 131.198 8.088C131.438 7.752 131.638 7.448 131.798 7.176C131.958 6.904 132.094 6.64 132.206 6.384C132.318 6.112 132.398 5.832 132.446 5.544C132.494 5.256 132.518 4.936 132.518 4.584V4.56C132.518 4.24 132.35 4.08 132.014 4.08C131.694 4.08 131.534 4.24 131.534 4.56V5.856L127.694 6.096L127.454 4.488C127.454 3.144 127.854 2.104 128.654 1.368C129.454 0.616 130.574 0.24 132.014 0.24C133.47 0.24 134.598 0.616 135.398 1.368C136.198 2.104 136.598 3.144 136.598 4.488Z" fill="#7692E4"/>
</svg>
