<svg width="61" height="19" viewBox="0 0 61 19" fill="none" xmlns="http://www.w3.org/2000/svg">
<path d="M17.7998 6.936H19.5998V10.536H17.7998V18.24H13.2878V0H17.7998V6.936ZM0.999766 0.192H11.2478V3.792C11.2478 6.56 10.8238 8.984 9.97577 11.064C9.14377 13.128 7.96777 14.72 6.44777 15.84C4.94377 16.96 3.20777 17.52 1.23977 17.52L0.759766 13.92C1.62377 13.92 2.50377 13.616 3.39977 13.008C4.31177 12.4 5.06377 11.424 5.65577 10.08H1.23977V6.48H6.56777C6.67977 5.712 6.73577 4.816 6.73577 3.792H0.999766V0.192Z" fill="#FF7A7A"/>
<path d="M30.0388 7.2V0H34.0468V18H30.0388V10.8H28.7908L28.6948 13.896H29.3188V17.52H21.0388V13.896H21.6628L21.3988 4.488H24.7828L24.8788 13.896H25.4788L25.5748 4.488H28.9588L28.8868 7.2H30.0388ZM34.7668 0H38.7988V18.24H34.7668V0ZM29.3188 0.144001V3.768H21.0388V0.144001H29.3188Z" fill="#FF7A7A"/>
<path d="M58.5538 3.61449H60.3491V7.08535H58.5538V10.9631H54.0536V0H58.5538V3.61449ZM53.3116 10.8435H41.75V7.97102H45.2927V7.15717C44.3671 7.0295 43.6251 6.66247 43.0665 6.05606C42.508 5.44966 42.2287 4.68367 42.2287 3.75811C42.2287 2.70488 42.5798 1.86709 43.282 1.24472C43.9841 0.622362 44.8858 0.311181 45.9869 0.311181H49.0029C50.104 0.311181 51.0057 0.622362 51.7078 1.24472C52.41 1.86709 52.761 2.70488 52.761 3.75811C52.761 4.68367 52.4897 5.44966 51.9472 6.05606C51.4046 6.64651 50.6865 7.00556 49.7928 7.13323V7.97102H53.3116V10.8435ZM46.9443 3.30331C46.8167 3.30331 46.705 3.35118 46.6092 3.44693C46.5294 3.52672 46.4895 3.63045 46.4895 3.75811C46.4895 3.88577 46.5294 3.99748 46.6092 4.09323C46.705 4.17302 46.8167 4.21291 46.9443 4.21291H48.0454C48.1731 4.21291 48.2768 4.17302 48.3566 4.09323C48.4524 3.99748 48.5002 3.88577 48.5002 3.75811C48.5002 3.63045 48.4524 3.52672 48.3566 3.44693C48.2768 3.35118 48.1731 3.30331 48.0454 3.30331H46.9443ZM55.035 11.5855C56.0883 11.5855 56.9341 11.8967 57.5724 12.5191C58.2267 13.1255 58.5538 13.9234 58.5538 14.9128C58.5538 15.9022 58.2267 16.708 57.5724 17.3304C56.9341 17.9368 56.0883 18.24 55.035 18.24H45.7954C44.7421 18.24 43.8884 17.9368 43.2341 17.3304C42.5958 16.708 42.2766 15.9022 42.2766 14.9128C42.2766 13.9234 42.5958 13.1255 43.2341 12.5191C43.8884 11.8967 44.7421 11.5855 45.7954 11.5855H55.035ZM53.5988 15.3676C53.7265 15.3676 53.8302 15.3277 53.91 15.2479C54.0058 15.1521 54.0536 15.0404 54.0536 14.9128C54.0536 14.7851 54.0058 14.6814 53.91 14.6016C53.8302 14.5058 53.7265 14.458 53.5988 14.458H47.2316C47.1039 14.458 46.9922 14.5058 46.8965 14.6016C46.8167 14.6814 46.7768 14.7851 46.7768 14.9128C46.7768 15.0404 46.8167 15.1521 46.8965 15.2479C46.9922 15.3277 47.1039 15.3676 47.2316 15.3676H53.5988Z" fill="#191919"/>
</svg>
