<svg width="24" height="24" viewBox="0 0 24 24" fill="none" xmlns="http://www.w3.org/2000/svg">
<circle cx="12" cy="12" r="3.5" stroke="#191919"/>
<path d="M9.38603 6.35194L9.59634 6.80556C9.7462 6.73608 9.85207 6.59707 9.87923 6.43414L9.38603 6.35194ZM9.77802 4V3.5C9.5336 3.5 9.32501 3.67671 9.28482 3.9178L9.77802 4ZM8.41713 6.91239L8.24171 7.38061C8.39663 7.43865 8.57022 7.41631 8.70538 7.32094L8.41713 6.91239ZM6.18316 6.07547L6.35857 5.60725C6.12969 5.5215 5.87236 5.6138 5.75015 5.82547L6.18316 6.07547ZM3.96094 9.92447L3.52792 9.67447C3.40572 9.88615 3.45445 10.1551 3.64315 10.3105L3.96094 9.92447ZM5.80282 11.4408L6.30084 11.4851C6.31549 11.3207 6.24804 11.1597 6.1206 11.0547L5.80282 11.4408ZM5.80282 12.5592L6.1206 12.9452C6.24804 12.8403 6.31549 12.6793 6.30084 12.5149L5.80282 12.5592ZM3.96096 14.0755L3.64317 13.6895C3.45447 13.8448 3.40573 14.1138 3.52794 14.3255L3.96096 14.0755ZM6.18318 17.9245L5.75017 18.1745C5.87238 18.3862 6.12971 18.4785 6.35859 18.3927L6.18318 17.9245ZM8.41712 17.0876L8.70538 16.6791C8.57021 16.5837 8.39662 16.5613 8.24171 16.6194L8.41712 17.0876ZM9.38603 17.6481L9.87923 17.5659C9.85207 17.4029 9.7462 17.2639 9.59634 17.1944L9.38603 17.6481ZM9.77802 20L9.28482 20.0822C9.32501 20.3233 9.5336 20.5 9.77802 20.5V20ZM14.2225 20V20.5C14.4669 20.5 14.6755 20.3233 14.7157 20.0822L14.2225 20ZM14.6145 17.6481L14.4041 17.1944C14.2543 17.2639 14.1484 17.4029 14.1213 17.5659L14.6145 17.6481ZM15.5834 17.0876L15.7588 16.6194C15.6039 16.5613 15.4303 16.5837 15.2951 16.6791L15.5834 17.0876ZM17.8174 17.9245L17.642 18.3928C17.8709 18.4785 18.1282 18.3862 18.2504 18.1745L17.8174 17.9245ZM20.0396 14.0755L20.4726 14.3255C20.5948 14.1139 20.5461 13.8449 20.3574 13.6895L20.0396 14.0755ZM18.1977 12.5592L17.6997 12.5148C17.685 12.6793 17.7525 12.8403 17.8799 12.9452L18.1977 12.5592ZM18.1977 11.4408L17.8799 11.0548C17.7525 11.1597 17.685 11.3208 17.6997 11.4852L18.1977 11.4408ZM20.0396 9.9245L20.3574 10.3105C20.5461 10.1552 20.5948 9.88618 20.4726 9.6745L20.0396 9.9245ZM17.8174 6.0755L18.2504 5.8255C18.1282 5.61383 17.8709 5.52153 17.642 5.60728L17.8174 6.0755ZM15.5834 6.91243L15.2952 7.32097C15.4303 7.41634 15.6039 7.43869 15.7588 7.38065L15.5834 6.91243ZM14.6145 6.35194L14.1213 6.43414C14.1484 6.59707 14.2543 6.73608 14.4041 6.80555L14.6145 6.35194ZM14.2225 4L14.7157 3.9178C14.6755 3.67671 14.4669 3.5 14.2225 3.5V4ZM9.87923 6.43414L10.2712 4.0822L9.28482 3.9178L8.89283 6.26974L9.87923 6.43414ZM8.70538 7.32094C8.98504 7.12362 9.28307 6.9508 9.59634 6.80556L9.17572 5.89832C8.8074 6.06909 8.45724 6.27216 8.12887 6.50385L8.70538 7.32094ZM6.00775 6.54369L8.24171 7.38061L8.59254 6.44417L6.35857 5.60725L6.00775 6.54369ZM4.39395 10.1745L6.61617 6.32547L5.75015 5.82547L3.52792 9.67447L4.39395 10.1745ZM6.1206 11.0547L4.27872 9.53845L3.64315 10.3105L5.48503 11.8268L6.1206 11.0547ZM6.27803 12C6.27803 11.8263 6.28575 11.6546 6.30084 11.4851L5.30479 11.3964C5.28707 11.5954 5.27803 11.7967 5.27803 12H6.27803ZM6.30084 12.5149C6.28575 12.3454 6.27803 12.1737 6.27803 12H5.27803C5.27803 12.2033 5.28707 12.4046 5.30479 12.6036L6.30084 12.5149ZM4.27874 14.4615L6.1206 12.9452L5.48503 12.1732L3.64317 13.6895L4.27874 14.4615ZM6.61619 17.6745L4.39397 13.8255L3.52794 14.3255L5.75017 18.1745L6.61619 17.6745ZM8.24171 16.6194L6.00777 17.4563L6.35859 18.3927L8.59253 17.5558L8.24171 16.6194ZM9.59634 17.1944C9.28306 17.0492 8.98503 16.8764 8.70538 16.6791L8.12886 17.4961C8.45723 17.7278 8.80739 17.9309 9.17572 18.1017L9.59634 17.1944ZM10.2712 19.9178L9.87923 17.5659L8.89283 17.7303L9.28482 20.0822L10.2712 19.9178ZM14.2225 19.5H9.77802V20.5H14.2225V19.5ZM14.1213 17.5659L13.7293 19.9178L14.7157 20.0822L15.1077 17.7303L14.1213 17.5659ZM15.2951 16.6791C15.0155 16.8764 14.7174 17.0492 14.4041 17.1944L14.8248 18.1017C15.1931 17.9309 15.5433 17.7278 15.8716 17.4961L15.2951 16.6791ZM17.9928 17.4563L15.7588 16.6194L15.408 17.5558L17.642 18.3928L17.9928 17.4563ZM19.6066 13.8255L17.3844 17.6745L18.2504 18.1745L20.4726 14.3255L19.6066 13.8255ZM17.8799 12.9452L19.7218 14.4616L20.3574 13.6895L18.5155 12.1732L17.8799 12.9452ZM17.7225 12C17.7225 12.1736 17.7148 12.3454 17.6997 12.5148L18.6957 12.6036C18.7134 12.4046 18.7225 12.2033 18.7225 12H17.7225ZM17.6997 11.4852C17.7148 11.6547 17.7225 11.8264 17.7225 12H18.7225C18.7225 11.7967 18.7134 11.5954 18.6957 11.3965L17.6997 11.4852ZM19.7218 9.53848L17.8799 11.0548L18.5155 11.8269L20.3574 10.3105L19.7218 9.53848ZM17.3844 6.3255L19.6066 10.1745L20.4726 9.6745L18.2504 5.8255L17.3844 6.3255ZM15.7588 7.38065L17.9928 6.54372L17.642 5.60728L15.408 6.44421L15.7588 7.38065ZM14.4041 6.80555C14.7174 6.95081 15.0155 7.12364 15.2952 7.32097L15.8717 6.50389C15.5433 6.27218 15.1931 6.06909 14.8248 5.89832L14.4041 6.80555ZM13.7293 4.0822L14.1213 6.43414L15.1077 6.26974L14.7157 3.9178L13.7293 4.0822ZM9.77802 4.5H14.2225V3.5H9.77802V4.5Z" fill="#191919"/>
</svg>
