<svg width="154" height="67" viewBox="0 0 154 67" fill="none" xmlns="http://www.w3.org/2000/svg">
<path d="M43.9733 18.9406H46.9153V0.874309H43.9733V18.9406ZM38.6211 7.55939C38.9595 6.13674 39.0976 4.59668 39.0976 2.92541H31.9084V5.4116H35.9899C35.6515 8.76796 34.2496 11.0331 30.7758 13.0912L32.523 15.2735C35.1128 13.8025 36.7496 12.0622 37.744 10.0249H40.1197V18.2155H43.0341V1.24033H40.1197V7.55939H38.6211ZM60.6626 18.9959H63.8325V0.874309H60.6626V18.9959ZM56.001 2.15884H52.8104V4.47238C52.7966 8.04282 51.7124 11.5097 48.2593 12.9047L50.124 15.5014C52.3063 14.5552 53.6668 12.808 54.4541 10.6188C55.2414 12.5732 56.5397 14.134 58.5286 15.0041L60.3588 12.4834C57.0162 11.1436 55.9872 7.81492 56.001 4.47238V2.15884ZM67.9873 1.36464V7.17265H80.432V1.36464H67.9873ZM71.0605 4.78315V3.76795H77.3105V4.78315H71.0605ZM82.49 7.76657H66.0191V10.1975H72.642V10.9434H67.863V13.2776H77.4555V13.7818H67.8561V18.8646H80.9707V16.5442H70.9224V15.9434H80.5494V10.9434H75.7912V10.1975H82.49V7.76657ZM98.102 0.901933H94.9666V12.1105H98.102V7.78039H100.167V5.20442H98.102V0.901933ZM94.055 8.8232C92.9017 8.96823 91.6793 9.06492 90.4362 9.13398V8.23619C92.2249 7.76657 93.4059 6.50967 93.4197 4.87293C93.4059 2.8011 91.4929 1.3232 88.8409 1.33011C86.1614 1.3232 84.2415 2.8011 84.2553 4.87293C84.2415 6.53039 85.4501 7.7942 87.2871 8.25V9.25138C85.8851 9.27901 84.5523 9.28591 83.3782 9.28591L83.689 11.6616C86.6862 11.6616 90.6918 11.5994 94.3382 10.9503L94.055 8.8232ZM88.8409 3.63674C89.8285 3.63674 90.4846 4.01657 90.4846 4.87293C90.4846 5.75 89.8354 6.18508 88.8409 6.18508C87.805 6.18508 87.1421 5.75 87.1559 4.87293C87.1421 4.01657 87.805 3.63674 88.8409 3.63674ZM91.8589 12.3522C87.9708 12.3522 85.5398 13.5884 85.5398 15.6948C85.5398 17.7044 87.9708 18.9751 91.8589 18.9613C95.7332 18.9751 98.1365 17.7044 98.1365 15.6948C98.1365 13.5884 95.7332 12.3522 91.8589 12.3522ZM91.8589 16.6133C89.6835 16.6064 88.62 16.337 88.6338 15.6948C88.62 14.9834 89.6835 14.7141 91.8589 14.7003C93.9722 14.7141 95.0288 14.9834 95.0357 15.6948C95.0288 16.337 93.9722 16.6064 91.8589 16.6133ZM109.121 8.97514C113.113 8.96823 115.793 7.49724 115.8 5.14227C115.793 2.81492 113.113 1.37845 109.121 1.37845C105.102 1.37845 102.416 2.81492 102.423 5.14227C102.416 7.49724 105.102 8.96823 109.121 8.97514ZM109.121 3.83011C111.352 3.84392 112.561 4.26519 112.561 5.14227C112.561 6.07459 111.352 6.44751 109.121 6.44061C106.87 6.44751 105.668 6.07459 105.682 5.14227C105.668 4.26519 106.87 3.84392 109.121 3.83011ZM100.889 12.3936H117.36V9.92818H100.889V12.3936ZM102.782 13.3674V18.6851H115.461V16.1851H105.917V13.3674H102.782ZM6.76321 28.5069C3.58641 28.5 0.91376 30.7099 0.927572 33.7141C0.91376 36.6975 3.58641 38.9006 6.76321 38.9006C9.99525 38.9006 12.6541 36.6975 12.661 33.7141C12.6541 30.7099 9.99525 28.5 6.76321 28.5069ZM6.76321 31.1865C8.39304 31.1865 9.63614 32.0912 9.64304 33.7141C9.63614 35.3232 8.39304 36.3039 6.76321 36.297C5.17481 36.3039 3.87647 35.3232 3.88337 33.7141C3.87647 32.0912 5.17481 31.1865 6.76321 31.1865ZM24.1984 28.5069C21.0216 28.5 18.3489 30.7099 18.3627 33.7141C18.3489 36.6975 21.0216 38.9006 24.1984 38.9006C27.4304 38.9006 30.0892 36.6975 30.0962 33.7141C30.0892 30.7099 27.4304 28.5 24.1984 28.5069ZM24.1984 31.1865C25.8282 31.1865 27.0713 32.0912 27.0782 33.7141C27.0713 35.3232 25.8282 36.3039 24.1984 36.297C22.61 36.3039 21.3116 35.3232 21.3185 33.7141C21.3116 32.0912 22.61 31.1865 24.1984 31.1865ZM41.6335 28.5069C38.4567 28.5 35.7841 30.7099 35.7979 33.7141C35.7841 36.6975 38.4567 38.9006 41.6335 38.9006C44.8656 38.9006 47.5244 36.6975 47.5313 33.7141C47.5244 30.7099 44.8656 28.5 41.6335 28.5069ZM41.6335 31.1865C43.2634 31.1865 44.5064 32.0912 44.5134 33.7141C44.5064 35.3232 43.2634 36.3039 41.6335 36.297C40.0451 36.3039 38.7468 35.3232 38.7537 33.7141C38.7468 32.0912 40.0451 31.1865 41.6335 31.1865ZM59.0687 28.5069C55.8919 28.5 53.2192 30.7099 53.233 33.7141C53.2192 36.6975 55.8919 38.9006 59.0687 38.9006C62.3007 38.9006 64.9596 36.6975 64.9665 33.7141C64.9596 30.7099 62.3007 28.5 59.0687 28.5069ZM59.0687 31.1865C60.6985 31.1865 61.9416 32.0912 61.9485 33.7141C61.9416 35.3232 60.6985 36.3039 59.0687 36.297C57.4803 36.3039 56.1819 35.3232 56.1888 33.7141C56.1819 32.0912 57.4803 31.1865 59.0687 31.1865ZM76.5038 28.5069C73.327 28.5 70.6544 30.7099 70.6682 33.7141C70.6544 36.6975 73.327 38.9006 76.5038 38.9006C79.7359 38.9006 82.3947 36.6975 82.4016 33.7141C82.3947 30.7099 79.7359 28.5 76.5038 28.5069ZM76.5038 31.1865C78.1337 31.1865 79.3768 32.0912 79.3837 33.7141C79.3768 35.3232 78.1337 36.3039 76.5038 36.297C74.9154 36.3039 73.6171 35.3232 73.624 33.7141C73.6171 32.0912 74.9154 31.1865 76.5038 31.1865ZM93.939 28.5069C90.7622 28.5 88.0895 30.7099 88.1034 33.7141C88.0895 36.6975 90.7622 38.9006 93.939 38.9006C97.171 38.9006 99.8299 36.6975 99.8368 33.7141C99.8299 30.7099 97.171 28.5 93.939 28.5069ZM93.939 31.1865C95.5688 31.1865 96.8119 32.0912 96.8188 33.7141C96.8119 35.3232 95.5688 36.3039 93.939 36.297C92.3506 36.3039 91.0522 35.3232 91.0592 33.7141C91.0522 32.0912 92.3506 31.1865 93.939 31.1865ZM111.374 28.5069C108.197 28.5 105.525 30.7099 105.539 33.7141C105.525 36.6975 108.197 38.9006 111.374 38.9006C114.606 38.9006 117.265 36.6975 117.272 33.7141C117.265 30.7099 114.606 28.5 111.374 28.5069ZM111.374 31.1865C113.004 31.1865 114.247 32.0912 114.254 33.7141C114.247 35.3232 113.004 36.3039 111.374 36.297C109.786 36.3039 108.487 35.3232 108.494 33.7141C108.487 32.0912 109.786 31.1865 111.374 31.1865ZM128.809 28.5069C125.633 28.5 122.96 30.7099 122.974 33.7141C122.96 36.6975 125.633 38.9006 128.809 38.9006C132.041 38.9006 134.7 36.6975 134.707 33.7141C134.7 30.7099 132.041 28.5 128.809 28.5069ZM128.809 31.1865C130.439 31.1865 131.682 32.0912 131.689 33.7141C131.682 35.3232 130.439 36.3039 128.809 36.297C127.221 36.3039 125.923 35.3232 125.929 33.7141C125.923 32.0912 127.221 31.1865 128.809 31.1865ZM150.105 34.9434H153.227V24.8743H150.105V34.9434ZM148.896 31.076C146.749 31.5456 144.663 31.7389 142.115 31.7873V25.9102H138.979V34.384H140.609C143.924 34.3771 146.597 34.163 149.235 33.5967L148.896 31.076ZM153.227 42.7403V35.6133H140.961V42.7403H153.227ZM150.153 38.0442V40.3163H144.035V38.0442H150.153ZM59.446 48.8743V58.5981H62.5951V48.8743H59.446ZM52.602 49.5511C49.736 49.5442 47.5261 51.3536 47.533 53.9157C47.5261 56.395 49.736 58.2044 52.602 58.2113C55.4543 58.2044 57.6642 56.395 57.6642 53.9157C57.6642 51.3536 55.4543 49.5442 52.602 49.5511ZM52.602 52.1478C53.7346 52.1478 54.5634 52.7624 54.5634 53.9157C54.5634 55.076 53.7346 55.6423 52.602 55.6492C51.4211 55.6423 50.5855 55.076 50.5924 53.9157C50.5855 52.7624 51.4211 52.1478 52.602 52.1478ZM50.2816 59.3163V66.768H62.5951V59.3163H59.4598V60.663H53.3617V59.3163H50.2816ZM53.3617 63.0594H59.4598V64.2472H53.3617V63.0594ZM77.0331 66.9406H80.1546V48.8743H77.0331V66.9406ZM68.732 50.5732H65.6242V62.6105H67.2955C70.0096 62.6174 73.0897 62.4309 76.2251 61.7749L75.8452 59.2127C73.435 59.6616 70.9833 59.8826 68.732 59.9448V50.5732ZM96.6298 55.3108V48.8743H93.4945V66.9959H96.6298V57.8453H99.0746V55.3108H96.6298ZM86.0083 53.018H91.3812V50.4972H82.8936V62.6934H84.4682C87.5069 62.7072 90.0276 62.6519 92.7969 62.1961L92.4724 59.6064C90.2969 59.9655 88.2596 60.0967 86.0083 60.1243V53.018ZM100.771 50.8564L101.116 60.6077H104.182L104.528 50.8564H100.771ZM102.649 65.2141C103.644 65.2141 104.528 64.3715 104.541 63.3218C104.528 62.2928 103.644 61.4503 102.649 61.4503C101.6 61.4503 100.736 62.2928 100.75 63.3218C100.736 64.3715 101.6 65.2141 102.649 65.2141Z" fill="white"/>
<path d="M43.9733 18.9406H43.7233V19.1906H43.9733V18.9406ZM46.9153 18.9406V19.1906H47.1653V18.9406H46.9153ZM46.9153 0.874309H47.1653V0.624309H46.9153V0.874309ZM43.9733 0.874309V0.624309H43.7233V0.874309H43.9733ZM38.6211 7.55939L38.3779 7.50154L38.3047 7.80939H38.6211V7.55939ZM39.0976 2.92541H39.3476V2.67541H39.0976V2.92541ZM31.9084 2.92541V2.67541H31.6584V2.92541H31.9084ZM31.9084 5.4116H31.6584V5.6616H31.9084V5.4116ZM35.9899 5.4116L36.2386 5.43668L36.2664 5.1616H35.9899V5.4116ZM30.7758 13.0912L30.6484 12.8761L30.4008 13.0228L30.5807 13.2474L30.7758 13.0912ZM32.523 15.2735L32.3279 15.4297L32.4611 15.5962L32.6465 15.4909L32.523 15.2735ZM37.744 10.0249V9.77486H37.5879L37.5194 9.9152L37.744 10.0249ZM40.1197 10.0249H40.3697V9.77486H40.1197V10.0249ZM40.1197 18.2155H39.8697V18.4655H40.1197V18.2155ZM43.0341 18.2155V18.4655H43.2841V18.2155H43.0341ZM43.0341 1.24033H43.2841V0.99033H43.0341V1.24033ZM40.1197 1.24033V0.99033H39.8697V1.24033H40.1197ZM40.1197 7.55939V7.80939H40.3697V7.55939H40.1197ZM43.9733 19.1906H46.9153V18.6906H43.9733V19.1906ZM47.1653 18.9406V0.874309H46.6653V18.9406H47.1653ZM46.9153 0.624309H43.9733V1.12431H46.9153V0.624309ZM43.7233 0.874309V18.9406H44.2233V0.874309H43.7233ZM38.8643 7.61724C39.2085 6.17034 39.3476 4.60984 39.3476 2.92541H38.8476C38.8476 4.58353 38.7105 6.10314 38.3779 7.50154L38.8643 7.61724ZM39.0976 2.67541H31.9084V3.17541H39.0976V2.67541ZM31.6584 2.92541V5.4116H32.1584V2.92541H31.6584ZM31.9084 5.6616H35.9899V5.1616H31.9084V5.6616ZM35.7412 5.38652C35.575 7.03464 35.1497 8.39842 34.3505 9.59978C33.5502 10.8026 32.3637 11.8598 30.6484 12.8761L30.9032 13.3062C32.6617 12.2645 33.913 11.1601 34.7668 9.87673C35.6215 8.59191 36.0664 7.14492 36.2386 5.43668L35.7412 5.38652ZM30.5807 13.2474L32.3279 15.4297L32.7182 15.1172L30.971 12.9349L30.5807 13.2474ZM32.6465 15.4909C35.2733 13.9989 36.9489 12.2237 37.9687 10.1345L37.5194 9.9152C36.5502 11.9006 34.9524 13.6061 32.3996 15.0561L32.6465 15.4909ZM37.744 10.2749H40.1197V9.77486H37.744V10.2749ZM39.8697 10.0249V18.2155H40.3697V10.0249H39.8697ZM40.1197 18.4655H43.0341V17.9655H40.1197V18.4655ZM43.2841 18.2155V1.24033H42.7841V18.2155H43.2841ZM43.0341 0.99033H40.1197V1.49033H43.0341V0.99033ZM39.8697 1.24033V7.55939H40.3697V1.24033H39.8697ZM40.1197 7.30939H38.6211V7.80939H40.1197V7.30939ZM60.6626 18.9959H60.4126V19.2459H60.6626V18.9959ZM63.8325 18.9959V19.2459H64.0825V18.9959H63.8325ZM63.8325 0.874309H64.0825V0.624309H63.8325V0.874309ZM60.6626 0.874309V0.624309H60.4126V0.874309H60.6626ZM56.001 2.15884H56.251V1.90884H56.001V2.15884ZM52.8104 2.15884V1.90884H52.5604V2.15884H52.8104ZM52.8104 4.47238L53.0604 4.47334V4.47238H52.8104ZM48.2593 12.9047L48.1657 12.6729L47.8707 12.7921L48.0562 13.0505L48.2593 12.9047ZM50.124 15.5014L49.9209 15.6472L50.0385 15.8109L50.2234 15.7308L50.124 15.5014ZM54.4541 10.6188L54.686 10.5254L54.4408 9.91684L54.2188 10.5342L54.4541 10.6188ZM58.5286 15.0041L58.4284 15.2332L58.6128 15.3138L58.731 15.151L58.5286 15.0041ZM60.3588 12.4834L60.5611 12.6303L60.7495 12.3707L60.4518 12.2514L60.3588 12.4834ZM56.001 4.47238L56.251 4.47341V4.47238H56.001ZM60.6626 19.2459H63.8325V18.7459H60.6626V19.2459ZM64.0825 18.9959V0.874309H63.5825V18.9959H64.0825ZM63.8325 0.624309H60.6626V1.12431H63.8325V0.624309ZM60.4126 0.874309V18.9959H60.9126V0.874309H60.4126ZM56.001 1.90884H52.8104V2.40884H56.001V1.90884ZM52.5604 2.15884V4.47238H53.0604V2.15884H52.5604ZM52.5604 4.47141C52.5467 8.0085 51.4743 11.3362 48.1657 12.6729L48.353 13.1365C51.9504 11.6831 53.0465 8.07713 53.0604 4.47334L52.5604 4.47141ZM48.0562 13.0505L49.9209 15.6472L50.327 15.3556L48.4624 12.7589L48.0562 13.0505ZM50.2234 15.7308C52.483 14.7511 53.8844 12.9417 54.6893 10.7034L54.2188 10.5342C53.4492 12.6743 52.1296 14.3594 50.0245 15.272L50.2234 15.7308ZM54.2222 10.7122C55.0289 12.7148 56.3682 14.3318 58.4284 15.2332L58.6289 14.7751C56.7112 13.9361 55.4538 12.4316 54.686 10.5254L54.2222 10.7122ZM58.731 15.151L60.5611 12.6303L60.1565 12.3365L58.3263 14.8573L58.731 15.151ZM60.4518 12.2514C57.2539 10.9696 56.2374 7.77993 56.251 4.47341L55.751 4.47134C55.7371 7.8499 56.7785 11.3177 60.2657 12.7155L60.4518 12.2514ZM56.251 4.47238V2.15884H55.751V4.47238H56.251ZM67.9873 1.36464V1.11464H67.7373V1.36464H67.9873ZM67.9873 7.17265H67.7373V7.42265H67.9873V7.17265ZM80.432 7.17265V7.42265H80.682V7.17265H80.432ZM80.432 1.36464H80.682V1.11464H80.432V1.36464ZM71.0605 4.78315H70.8105V5.03315H71.0605V4.78315ZM71.0605 3.76795V3.51795H70.8105V3.76795H71.0605ZM77.3105 3.76795H77.5605V3.51795H77.3105V3.76795ZM77.3105 4.78315V5.03315H77.5605V4.78315H77.3105ZM82.4901 7.76657H82.7401V7.51657H82.4901V7.76657ZM66.0191 7.76657V7.51657H65.7691V7.76657H66.0191ZM66.0191 10.1975H65.7691V10.4475H66.0191V10.1975ZM72.642 10.1975H72.892V9.94751H72.642V10.1975ZM72.642 10.9434V11.1934H72.892V10.9434H72.642ZM67.863 10.9434V10.6934H67.613V10.9434H67.863ZM67.863 13.2776H67.613V13.5276H67.863V13.2776ZM77.4555 13.2776H77.7055V13.0276H77.4555V13.2776ZM77.4555 13.7818V14.0318H77.7055V13.7818H77.4555ZM67.8561 13.7818V13.5318H67.6061V13.7818H67.8561ZM67.8561 18.8646H67.6061V19.1146H67.8561V18.8646ZM80.9707 18.8646V19.1146H81.2207V18.8646H80.9707ZM80.9707 16.5442H81.2207V16.2942H80.9707V16.5442ZM70.9224 16.5442H70.6724V16.7942H70.9224V16.5442ZM70.9224 15.9434V15.6934H70.6724V15.9434H70.9224ZM80.5494 15.9434V16.1934H80.7994V15.9434H80.5494ZM80.5494 10.9434H80.7994V10.6934H80.5494V10.9434ZM75.7912 10.9434H75.5412V11.1934H75.7912V10.9434ZM75.7912 10.1975V9.94751H75.5412V10.1975H75.7912ZM82.4901 10.1975V10.4475H82.7401V10.1975H82.4901ZM67.7373 1.36464V7.17265H68.2373V1.36464H67.7373ZM67.9873 7.42265H80.432V6.92265H67.9873V7.42265ZM80.682 7.17265V1.36464H80.182V7.17265H80.682ZM80.432 1.11464H67.9873V1.61464H80.432V1.11464ZM71.3105 4.78315V3.76795H70.8105V4.78315H71.3105ZM71.0605 4.01795H77.3105V3.51795H71.0605V4.01795ZM77.0605 3.76795V4.78315H77.5605V3.76795H77.0605ZM77.3105 4.53315H71.0605V5.03315H77.3105V4.53315ZM82.4901 7.51657H66.0191V8.01657H82.4901V7.51657ZM65.7691 7.76657V10.1975H66.2691V7.76657H65.7691ZM66.0191 10.4475H72.642V9.94751H66.0191V10.4475ZM72.392 10.1975V10.9434H72.892V10.1975H72.392ZM72.642 10.6934H67.863V11.1934H72.642V10.6934ZM67.613 10.9434V13.2776H68.113V10.9434H67.613ZM67.863 13.5276H77.4555V13.0276H67.863V13.5276ZM77.2055 13.2776V13.7818H77.7055V13.2776H77.2055ZM77.4555 13.5318H67.8561V14.0318H77.4555V13.5318ZM67.6061 13.7818V18.8646H68.1061V13.7818H67.6061ZM67.8561 19.1146H80.9707V18.6146H67.8561V19.1146ZM81.2207 18.8646V16.5442H80.7207V18.8646H81.2207ZM80.9707 16.2942H70.9224V16.7942H80.9707V16.2942ZM71.1724 16.5442V15.9434H70.6724V16.5442H71.1724ZM70.9224 16.1934H80.5494V15.6934H70.9224V16.1934ZM80.7994 15.9434V10.9434H80.2994V15.9434H80.7994ZM80.5494 10.6934H75.7912V11.1934H80.5494V10.6934ZM76.0412 10.9434V10.1975H75.5412V10.9434H76.0412ZM75.7912 10.4475H82.4901V9.94751H75.7912V10.4475ZM82.7401 10.1975V7.76657H82.2401V10.1975H82.7401ZM98.102 0.901933H98.352V0.651933H98.102V0.901933ZM94.9666 0.901933V0.651933H94.7166V0.901933H94.9666ZM94.9666 12.1105H94.7166V12.3605H94.9666V12.1105ZM98.102 12.1105V12.3605H98.352V12.1105H98.102ZM98.102 7.78039V7.53039H97.852V7.78039H98.102ZM100.167 7.78039V8.03039H100.417V7.78039H100.167ZM100.167 5.20442H100.417V4.95442H100.167V5.20442ZM98.102 5.20442H97.852V5.45442H98.102V5.20442ZM94.055 8.8232L94.3028 8.79022L94.2701 8.54419L94.0238 8.57516L94.055 8.8232ZM90.4362 9.13398H90.1862V9.39825L90.4501 9.38359L90.4362 9.13398ZM90.4362 8.23619L90.3728 7.99438L90.1862 8.04335V8.23619H90.4362ZM93.4197 4.87293L93.6697 4.87504L93.6697 4.87126L93.4197 4.87293ZM88.8409 1.33011L88.8403 1.58011L88.8416 1.58011L88.8409 1.33011ZM84.2553 4.87293L84.5053 4.87501L84.5053 4.87126L84.2553 4.87293ZM87.2871 8.25H87.5371V8.05445L87.3473 8.00736L87.2871 8.25ZM87.2871 9.25138L87.292 9.50133L87.5371 9.4965V9.25138H87.2871ZM83.3782 9.28591V9.03591H83.0934L83.1303 9.31834L83.3782 9.28591ZM83.689 11.6616L83.4411 11.694L83.4696 11.9116H83.689V11.6616ZM94.3382 10.9503L94.382 11.1964L94.6176 11.1545L94.586 10.9173L94.3382 10.9503ZM87.1559 4.87293L87.406 4.87687L87.4058 4.8689L87.1559 4.87293ZM91.8589 18.9613L91.8598 18.7113L91.858 18.7113L91.8589 18.9613ZM91.8589 16.6133L91.8581 16.8633L91.8597 16.8633L91.8589 16.6133ZM88.6338 15.6948L88.8839 15.7001L88.8837 15.6899L88.6338 15.6948ZM91.8589 14.7003L91.8605 14.4503L91.8573 14.4503L91.8589 14.7003ZM95.0357 15.6948L95.2857 15.6974L95.2857 15.6923L95.0357 15.6948ZM98.102 0.651933H94.9666V1.15193H98.102V0.651933ZM94.7166 0.901933V12.1105H95.2166V0.901933H94.7166ZM94.9666 12.3605H98.102V11.8605H94.9666V12.3605ZM98.352 12.1105V7.78039H97.852V12.1105H98.352ZM98.102 8.03039H100.167V7.53039H98.102V8.03039ZM100.417 7.78039V5.20442H99.9169V7.78039H100.417ZM100.167 4.95442H98.102V5.45442H100.167V4.95442ZM98.352 5.20442V0.901933H97.852V5.20442H98.352ZM94.0238 8.57516C92.8782 8.71922 91.662 8.8155 90.4224 8.88436L90.4501 9.38359C91.6967 9.31434 92.9253 9.21724 94.0862 9.07125L94.0238 8.57516ZM90.6862 9.13398V8.23619H90.1862V9.13398H90.6862ZM90.4997 8.47799C92.3668 7.98779 93.6547 6.65349 93.6697 4.87504L93.1697 4.87082C93.1571 6.36584 92.083 7.54536 90.3728 7.99438L90.4997 8.47799ZM93.6697 4.87126C93.6546 2.60784 91.5689 1.073 88.8403 1.08011L88.8416 1.58011C91.4169 1.5734 93.1571 2.99437 93.1697 4.87459L93.6697 4.87126ZM88.8416 1.08011C86.0885 1.07301 83.9902 2.6063 84.0053 4.87459L84.5053 4.87126C84.4928 2.99591 86.2343 1.57339 88.8403 1.58011L88.8416 1.08011ZM84.0053 4.87084C83.9903 6.67643 85.3125 8.01765 87.2269 8.49264L87.3473 8.00736C85.5876 7.57074 84.4927 6.38434 84.5053 4.87501L84.0053 4.87084ZM87.0371 8.25V9.25138H87.5371V8.25H87.0371ZM87.2822 9.00143C85.8824 9.02901 84.5513 9.03591 83.3782 9.03591V9.53591C84.5532 9.53591 85.8878 9.529 87.292 9.50133L87.2822 9.00143ZM83.1303 9.31834L83.4411 11.694L83.9369 11.6292L83.6261 9.25348L83.1303 9.31834ZM83.689 11.9116C86.6867 11.9116 90.7118 11.8498 94.382 11.1964L94.2944 10.7041C90.6717 11.3491 86.6858 11.4116 83.689 11.4116V11.9116ZM94.586 10.9173L94.3028 8.79022L93.8072 8.85619L94.0904 10.9833L94.586 10.9173ZM88.8409 3.88674C89.309 3.88674 89.661 3.97778 89.8894 4.13825C90.1039 4.28899 90.2346 4.51811 90.2346 4.87293H90.7346C90.7346 4.37139 90.5373 3.98242 90.1768 3.72915C89.8303 3.48562 89.3605 3.38674 88.8409 3.38674V3.88674ZM90.2346 4.87293C90.2346 5.24265 90.1017 5.49326 89.8842 5.65906C89.6565 5.83255 89.3066 5.93508 88.8409 5.93508V6.43508C89.3698 6.43508 89.8417 6.32007 90.1872 6.05675C90.5429 5.78575 90.7346 5.38027 90.7346 4.87293H90.2346ZM88.8409 5.93508C88.3525 5.93508 87.9883 5.83168 87.754 5.65734C87.5315 5.49175 87.4001 5.24342 87.4058 4.87686L86.9059 4.86899C86.8979 5.37951 87.091 5.78725 87.4555 6.05847C87.8083 6.32095 88.2935 6.43508 88.8409 6.43508V5.93508ZM87.4058 4.8689C87.4001 4.51647 87.5282 4.28985 87.7465 4.13964C87.9805 3.97857 88.3466 3.88674 88.8409 3.88674V3.38674C88.2994 3.38674 87.816 3.48483 87.463 3.72776C87.0943 3.98156 86.8978 4.37304 86.9059 4.87696L87.4058 4.8689ZM91.8589 12.1022C89.8939 12.1022 88.2689 12.4137 87.1254 13.0121C85.9735 13.6149 85.2898 14.524 85.2898 15.6948H85.7898C85.7898 14.7591 86.3216 13.997 87.3572 13.4551C88.4013 12.9088 89.9358 12.6022 91.8589 12.6022V12.1022ZM85.2898 15.6948C85.2898 16.8211 85.978 17.7133 87.1262 18.3088C88.269 18.9013 89.8934 19.2183 91.8598 19.2113L91.858 18.7113C89.9363 18.7182 88.4012 18.4067 87.3564 17.8649C86.3172 17.326 85.7898 16.5781 85.7898 15.6948H85.2898ZM91.858 19.2113C93.8175 19.2183 95.432 18.9013 96.5664 18.3084C97.7069 17.7123 98.3865 16.8197 98.3865 15.6948H97.8865C97.8865 16.5794 97.3645 17.3271 96.3348 17.8653C95.299 18.4067 93.7746 18.7182 91.8598 18.7113L91.858 19.2113ZM98.3865 15.6948C98.3865 14.5254 97.7113 13.6159 96.5672 13.0125C95.4321 12.4137 93.8171 12.1022 91.8589 12.1022V12.6022C93.7751 12.6022 95.2989 12.9088 96.3339 13.4547C97.3601 13.996 97.8865 14.7578 97.8865 15.6948H98.3865ZM91.8597 16.3633C90.7755 16.3598 89.994 16.2904 89.4921 16.1513C89.2407 16.0817 89.0822 16.0006 88.9909 15.9204C88.9087 15.8483 88.882 15.7794 88.8837 15.7001L88.3838 15.6894C88.3786 15.9312 88.4797 16.1369 88.661 16.2961C88.8332 16.4473 89.0739 16.5543 89.3586 16.6332C89.9289 16.7911 90.7669 16.8598 91.8581 16.8633L91.8597 16.3633ZM88.8837 15.6899C88.8817 15.5843 88.9158 15.5009 88.9984 15.4222C89.0895 15.3354 89.2465 15.2493 89.496 15.1758C89.9959 15.0284 90.7753 14.9572 91.8605 14.9503L91.8573 14.4503C90.7671 14.4572 89.927 14.5275 89.3547 14.6961C89.0682 14.7806 88.8259 14.896 88.6535 15.0602C88.4726 15.2325 88.379 15.4495 88.3838 15.6996L88.8837 15.6899ZM91.8573 14.9503C92.9109 14.9572 93.6729 15.0284 94.1657 15.1755C94.4114 15.2489 94.5687 15.3351 94.662 15.4231C94.7477 15.5038 94.7847 15.5901 94.7857 15.6972L95.2857 15.6923C95.2833 15.4438 95.1856 15.2296 95.0051 15.0594C94.8324 14.8964 94.5921 14.781 94.3087 14.6964C93.7431 14.5276 92.9202 14.4572 91.8605 14.4503L91.8573 14.9503ZM94.7857 15.6921C94.7848 15.7733 94.7549 15.8454 94.6696 15.9196C94.576 16.0009 94.4172 16.0821 94.1696 16.1516C93.6748 16.2904 92.9108 16.3598 91.8581 16.3633L91.8597 16.8633C92.9203 16.8598 93.7412 16.7911 94.3047 16.633C94.5864 16.5539 94.8251 16.447 94.9976 16.2969C95.1783 16.1398 95.2831 15.9373 95.2857 15.6974L94.7857 15.6921ZM109.121 8.97514L109.121 9.22514L109.122 9.22514L109.121 8.97514ZM115.8 5.14227L116.05 5.143L116.05 5.14152L115.8 5.14227ZM102.423 5.14227L102.673 5.143L102.673 5.14152L102.423 5.14227ZM109.121 3.83011L109.123 3.5801L109.12 3.58012L109.121 3.83011ZM109.121 6.44061L109.122 6.1906L109.121 6.19061L109.121 6.44061ZM105.682 5.14227L105.932 5.14597L105.932 5.13833L105.682 5.14227ZM100.889 12.3936H100.639V12.6436H100.889V12.3936ZM117.36 12.3936V12.6436H117.61V12.3936H117.36ZM117.36 9.92818H117.61V9.67818H117.36V9.92818ZM100.889 9.92818V9.67818H100.639V9.92818H100.889ZM102.782 13.3674V13.1174H102.532V13.3674H102.782ZM102.782 18.6851H102.532V18.9351H102.782V18.6851ZM115.461 18.6851V18.9351H115.711V18.6851H115.461ZM115.461 16.1851H115.711V15.9351H115.461V16.1851ZM105.917 16.1851H105.667V16.4351H105.917V16.1851ZM105.917 13.3674H106.167V13.1174H105.917V13.3674ZM109.122 9.22514C111.144 9.22164 112.858 8.84804 114.078 8.15672C115.304 7.46179 116.046 6.4327 116.05 5.143L115.55 5.14153C115.546 6.2068 114.945 7.0907 113.832 7.72173C112.712 8.35638 111.091 8.72173 109.121 8.72514L109.122 9.22514ZM116.05 5.14152C116.046 3.86379 115.302 2.85031 114.076 2.16908C112.857 1.49137 111.142 1.12845 109.121 1.12845V1.62845C111.092 1.62845 112.713 1.98377 113.833 2.60613C114.947 3.22496 115.546 4.09339 115.55 5.14301L116.05 5.14152ZM109.121 1.12845C107.087 1.12845 105.364 1.49127 104.141 2.16893C102.911 2.85016 102.169 3.8642 102.173 5.14301L102.673 5.14152C102.669 4.09298 103.266 3.22512 104.383 2.60628C105.507 1.98386 107.137 1.62845 109.121 1.62845V1.12845ZM102.173 5.14153C102.169 6.43229 102.909 7.46194 104.139 8.15688C105.362 8.84814 107.086 9.22164 109.121 9.22514L109.122 8.72514C107.138 8.72173 105.508 8.35628 104.385 7.72158C103.268 7.09055 102.669 6.20722 102.673 5.143L102.173 5.14153ZM109.12 4.08011C110.227 4.08696 111.051 4.19561 111.59 4.3967C112.128 4.59713 112.311 4.856 112.311 5.14227H112.811C112.811 4.55146 112.389 4.16116 111.765 3.92823C111.142 3.69596 110.247 3.58707 109.123 3.58012L109.12 4.08011ZM112.311 5.14227C112.311 5.31555 112.257 5.45398 112.15 5.57294C112.039 5.69735 111.86 5.81233 111.593 5.90839C111.055 6.10193 110.231 6.19404 109.122 6.19061L109.121 6.69061C110.242 6.69408 111.138 6.60318 111.762 6.3789C112.076 6.26606 112.338 6.11343 112.523 5.90591C112.714 5.69294 112.811 5.43514 112.811 5.14227H112.311ZM109.121 6.19061C108.001 6.19404 107.174 6.10187 106.637 5.90843C106.37 5.81243 106.193 5.69777 106.085 5.57437C105.981 5.45667 105.93 5.3193 105.932 5.14597L105.432 5.13856C105.428 5.43139 105.521 5.69026 105.709 5.90448C105.893 6.11301 106.154 6.26595 106.468 6.37886C107.091 6.60324 107.99 6.69408 109.122 6.69061L109.121 6.19061ZM105.932 5.13833C105.93 4.98294 105.979 4.85283 106.083 4.73587C106.193 4.6133 106.372 4.49664 106.64 4.39666C107.178 4.19567 108.006 4.08696 109.123 4.08011L109.12 3.58012C107.986 3.58707 107.087 3.6959 106.465 3.92827C106.152 4.04497 105.893 4.19894 105.711 4.40247C105.524 4.6116 105.428 4.86306 105.432 5.1462L105.932 5.13833ZM100.889 12.6436H117.36V12.1436H100.889V12.6436ZM117.61 12.3936V9.92818H117.11V12.3936H117.61ZM117.36 9.67818H100.889V10.1782H117.36V9.67818ZM100.639 9.92818V12.3936H101.139V9.92818H100.639ZM102.532 13.3674V18.6851H103.032V13.3674H102.532ZM102.782 18.9351H115.461V18.4351H102.782V18.9351ZM115.711 18.6851V16.1851H115.211V18.6851H115.711ZM115.461 15.9351H105.917V16.4351H115.461V15.9351ZM106.167 16.1851V13.3674H105.667V16.1851H106.167ZM105.917 13.1174H102.782V13.6174H105.917V13.1174ZM6.76321 28.5069L6.76266 28.7569L6.76374 28.7569L6.76321 28.5069ZM0.927572 33.7141L1.17758 33.7152L1.17757 33.7129L0.927572 33.7141ZM12.661 33.7141L12.911 33.7147L12.911 33.7135L12.661 33.7141ZM9.64304 33.7141L9.89305 33.7152L9.89304 33.713L9.64304 33.7141ZM6.76321 36.297L6.76427 36.047L6.76212 36.047L6.76321 36.297ZM3.88337 33.7141L4.13338 33.7152L4.13337 33.713L3.88337 33.7141ZM6.76375 28.2569C3.48227 28.2498 0.662978 30.5406 0.677575 33.7152L1.17757 33.7129C1.16454 30.8793 3.69056 28.7502 6.76266 28.7569L6.76375 28.2569ZM0.677575 33.7129C0.662968 36.8679 3.48339 39.1506 6.76321 39.1506V38.6506C3.68944 38.6506 1.16455 36.5271 1.17757 33.7152L0.677575 33.7129ZM6.76321 39.1506C10.0981 39.1506 12.9037 36.8685 12.911 33.7147L12.411 33.7135C12.4045 36.5265 9.89245 38.6506 6.76321 38.6506V39.1506ZM12.911 33.7135C12.9037 30.5399 10.0992 28.2498 6.76267 28.2569L6.76374 28.7569C9.89135 28.7502 12.4045 30.88 12.411 33.7147L12.911 33.7135ZM6.76321 31.4365C7.53414 31.4365 8.1913 31.6505 8.65177 32.0338C9.10703 32.4128 9.38989 32.9731 9.39304 33.7152L9.89304 33.713C9.88929 32.8321 9.54715 32.1286 8.97167 31.6495C8.40141 31.1748 7.62211 30.9365 6.76321 30.9365V31.4365ZM9.39304 33.713C9.38989 34.4486 9.10655 35.0263 8.64824 35.4224C8.18641 35.8216 7.53003 36.0502 6.76427 36.047L6.76215 36.547C7.62622 36.5506 8.4063 36.2924 8.9752 35.8007C9.54763 35.3059 9.88929 34.5887 9.89304 33.7152L9.39304 33.713ZM6.76212 36.047C6.0181 36.0502 5.35717 35.8221 4.88728 35.4213C4.42127 35.0239 4.13023 34.4465 4.13337 33.7152L3.63338 33.713C3.62961 34.5908 3.98429 35.3083 4.56282 35.8017C5.13747 36.2919 5.91992 36.5506 6.76429 36.547L6.76212 36.047ZM4.13337 33.713C4.13023 32.9752 4.42074 32.4152 4.88374 32.0349C5.35225 31.65 6.014 31.4365 6.76321 31.4365V30.9365C5.92402 30.9365 5.1424 31.1753 4.56636 31.6485C3.98482 32.1262 3.62961 32.83 3.63338 33.7152L4.13337 33.713ZM24.1984 28.5069L24.1978 28.7569L24.1989 28.7569L24.1984 28.5069ZM18.3627 33.7141L18.6127 33.7152L18.6127 33.7129L18.3627 33.7141ZM30.0962 33.7141L30.3462 33.7147L30.3462 33.7135L30.0962 33.7141ZM27.0782 33.7141L27.3282 33.7152L27.3282 33.713L27.0782 33.7141ZM24.1984 36.297L24.1994 36.047L24.1973 36.047L24.1984 36.297ZM21.3185 33.7141L21.5685 33.7152L21.5685 33.713L21.3185 33.7141ZM24.1989 28.2569C20.9174 28.2498 18.0981 30.5406 18.1127 33.7152L18.6127 33.7129C18.5997 30.8793 21.1257 28.7502 24.1978 28.7569L24.1989 28.2569ZM18.1127 33.7129C18.0981 36.8679 20.9185 39.1506 24.1984 39.1506V38.6506C21.1246 38.6506 18.5997 36.5271 18.6127 33.7152L18.1127 33.7129ZM24.1984 39.1506C27.5332 39.1506 30.3389 36.8685 30.3462 33.7147L29.8462 33.7135C29.8396 36.5265 27.3276 38.6506 24.1984 38.6506V39.1506ZM30.3462 33.7135C30.3389 30.5399 27.5343 28.2498 24.1978 28.2569L24.1989 28.7569C27.3265 28.7502 29.8396 30.88 29.8462 33.7147L30.3462 33.7135ZM24.1984 31.4365C24.9693 31.4365 25.6265 31.6505 26.0869 32.0338C26.5422 32.4128 26.825 32.9731 26.8282 33.7152L27.3282 33.713C27.3244 32.8321 26.9823 32.1286 26.4068 31.6495C25.8366 31.1748 25.0573 30.9365 24.1984 30.9365V31.4365ZM26.8282 33.713C26.825 34.4486 26.5417 35.0263 26.0834 35.4224C25.6216 35.8216 24.9652 36.0502 24.1994 36.047L24.1973 36.547C25.0614 36.5506 25.8415 36.2924 26.4104 35.8007C26.9828 35.3059 27.3244 34.5887 27.3282 33.7152L26.8282 33.713ZM24.1973 36.047C23.4533 36.0502 22.7923 35.8221 22.3224 35.4213C21.8564 35.0239 21.5654 34.4465 21.5685 33.7152L21.0685 33.713C21.0648 34.5908 21.4194 35.3083 21.998 35.8017C22.5726 36.2919 23.3551 36.5506 24.1994 36.547L24.1973 36.047ZM21.5685 33.713C21.5654 32.9752 21.8559 32.4152 22.3189 32.0349C22.7874 31.65 23.4492 31.4365 24.1984 31.4365V30.9365C23.3592 30.9365 22.5776 31.1753 22.0015 31.6485C21.42 32.1262 21.0648 32.83 21.0685 33.7152L21.5685 33.713ZM41.6335 28.5069L41.633 28.7569L41.6341 28.7569L41.6335 28.5069ZM35.7979 33.7141L36.0479 33.7152L36.0479 33.7129L35.7979 33.7141ZM47.5313 33.7141L47.7813 33.7147V33.7135L47.5313 33.7141ZM44.5134 33.7141L44.7634 33.7152L44.7634 33.713L44.5134 33.7141ZM41.6335 36.297L41.6346 36.047L41.6324 36.047L41.6335 36.297ZM38.7537 33.7141L39.0037 33.7152L39.0037 33.713L38.7537 33.7141ZM41.6341 28.2569C38.3526 28.2498 35.5333 30.5406 35.5479 33.7152L36.0479 33.7129C36.0349 30.8793 38.5609 28.7502 41.633 28.7569L41.6341 28.2569ZM35.5479 33.7129C35.5333 36.8679 38.3537 39.1506 41.6335 39.1506V38.6506C38.5597 38.6506 36.0349 36.5271 36.0479 33.7152L35.5479 33.7129ZM41.6335 39.1506C44.9684 39.1506 47.774 36.8685 47.7813 33.7147L47.2813 33.7135C47.2748 36.5265 44.7628 38.6506 41.6335 38.6506V39.1506ZM47.7813 33.7135C47.774 30.5399 44.9695 28.2498 41.633 28.2569L41.6341 28.7569C44.7617 28.7502 47.2748 30.88 47.2813 33.7147L47.7813 33.7135ZM41.6335 31.4365C42.4045 31.4365 43.0616 31.6505 43.5221 32.0338C43.9773 32.4128 44.2602 32.9731 44.2634 33.7152L44.7634 33.713C44.7596 32.8321 44.4175 32.1286 43.842 31.6495C43.2717 31.1748 42.4924 30.9365 41.6335 30.9365V31.4365ZM44.2634 33.713C44.2602 34.4486 43.9769 35.0263 43.5186 35.4224C43.0567 35.8216 42.4003 36.0502 41.6346 36.047L41.6325 36.547C42.4965 36.5506 43.2766 36.2924 43.8455 35.8007C44.4179 35.3059 44.7596 34.5887 44.7634 33.7152L44.2634 33.713ZM41.6324 36.047C40.8884 36.0502 40.2275 35.8221 39.7576 35.4213C39.2916 35.0239 39.0005 34.4465 39.0037 33.7152L38.5037 33.713C38.4999 34.5908 38.8546 35.3083 39.4331 35.8017C40.0078 36.2919 40.7902 36.5506 41.6346 36.547L41.6324 36.047ZM39.0037 33.713C39.0005 32.9752 39.2911 32.4152 39.7541 32.0349C40.2226 31.65 40.8843 31.4365 41.6335 31.4365V30.9365C40.7943 30.9365 40.0127 31.1753 39.4367 31.6485C38.8551 32.1262 38.4999 32.83 38.5037 33.7152L39.0037 33.713ZM59.0687 28.5069L59.0681 28.7569L59.0692 28.7569L59.0687 28.5069ZM53.233 33.7141L53.4831 33.7152L53.483 33.7129L53.233 33.7141ZM64.9665 33.7141L65.2165 33.7147V33.7135L64.9665 33.7141ZM61.9485 33.7141L62.1985 33.7152L62.1985 33.713L61.9485 33.7141ZM59.0687 36.297L59.0697 36.047L59.0676 36.047L59.0687 36.297ZM56.1888 33.7141L56.4389 33.7152L56.4388 33.713L56.1888 33.7141ZM59.0692 28.2569C55.7877 28.2498 52.9684 30.5406 52.983 33.7152L53.483 33.7129C53.47 30.8793 55.996 28.7502 59.0681 28.7569L59.0692 28.2569ZM52.983 33.7129C52.9684 36.8679 55.7889 39.1506 59.0687 39.1506V38.6506C55.9949 38.6506 53.47 36.5271 53.483 33.7152L52.983 33.7129ZM59.0687 39.1506C62.4035 39.1506 65.2092 36.8685 65.2165 33.7147L64.7165 33.7135C64.71 36.5265 62.1979 38.6506 59.0687 38.6506V39.1506ZM65.2165 33.7135C65.2092 30.5399 62.4046 28.2498 59.0681 28.2569L59.0692 28.7569C62.1968 28.7502 64.71 30.88 64.7165 33.7147L65.2165 33.7135ZM59.0687 31.4365C59.8396 31.4365 60.4968 31.6505 60.9572 32.0338C61.4125 32.4128 61.6954 32.9731 61.6985 33.7152L62.1985 33.713C62.1948 32.8321 61.8526 32.1286 61.2771 31.6495C60.7069 31.1748 59.9276 30.9365 59.0687 30.9365V31.4365ZM61.6985 33.713C61.6954 34.4486 61.412 35.0263 60.9537 35.4224C60.4919 35.8216 59.8355 36.0502 59.0697 36.047L59.0676 36.547C59.9317 36.5506 60.7118 36.2924 61.2807 35.8007C61.8531 35.3059 62.1948 34.5887 62.1985 33.7152L61.6985 33.713ZM59.0676 36.047C58.3236 36.0502 57.6626 35.8221 57.1928 35.4213C56.7267 35.0239 56.4357 34.4465 56.4388 33.7152L55.9388 33.713C55.9351 34.5908 56.2898 35.3083 56.8683 35.8017C57.4429 36.2919 58.2254 36.5506 59.0698 36.547L59.0676 36.047ZM56.4388 33.713C56.4357 32.9752 56.7262 32.4152 57.1892 32.0349C57.6577 31.65 58.3195 31.4365 59.0687 31.4365V30.9365C58.2295 30.9365 57.4479 31.1753 56.8718 31.6485C56.2903 32.1262 55.9351 32.83 55.9388 33.7152L56.4388 33.713ZM76.5038 28.5069L76.5033 28.7569L76.5044 28.7569L76.5038 28.5069ZM70.6682 33.7141L70.9182 33.7152L70.9182 33.7129L70.6682 33.7141ZM82.4016 33.7141L82.6516 33.7147L82.6516 33.7135L82.4016 33.7141ZM79.3837 33.7141L79.6337 33.7152L79.6337 33.713L79.3837 33.7141ZM76.5038 36.297L76.5049 36.047L76.5027 36.047L76.5038 36.297ZM73.624 33.7141L73.874 33.7152L73.874 33.713L73.624 33.7141ZM76.5044 28.2569C73.2229 28.2498 70.4036 30.5406 70.4182 33.7152L70.9182 33.7129C70.9052 30.8793 73.4312 28.7502 76.5033 28.7569L76.5044 28.2569ZM70.4182 33.7129C70.4036 36.8679 73.224 39.1506 76.5038 39.1506V38.6506C73.4301 38.6506 70.9052 36.5271 70.9182 33.7152L70.4182 33.7129ZM76.5038 39.1506C79.8387 39.1506 82.6443 36.8685 82.6516 33.7147L82.1516 33.7135C82.1451 36.5265 79.6331 38.6506 76.5038 38.6506V39.1506ZM82.6516 33.7135C82.6443 30.5399 79.8398 28.2498 76.5033 28.2569L76.5044 28.7569C79.632 28.7502 82.1451 30.88 82.1516 33.7147L82.6516 33.7135ZM76.5038 31.4365C77.2748 31.4365 77.9319 31.6505 78.3924 32.0338C78.8477 32.4128 79.1305 32.9731 79.1337 33.7152L79.6337 33.713C79.6299 32.8321 79.2878 32.1286 78.7123 31.6495C78.142 31.1748 77.3627 30.9365 76.5038 30.9365V31.4365ZM79.1337 33.713C79.1305 34.4486 78.8472 35.0263 78.3889 35.4224C77.927 35.8216 77.2707 36.0502 76.5049 36.047L76.5028 36.547C77.3668 36.5506 78.1469 36.2924 78.7158 35.8007C79.2883 35.3059 79.6299 34.5887 79.6337 33.7152L79.1337 33.713ZM76.5027 36.047C75.7587 36.0502 75.0978 35.8221 74.6279 35.4213C74.1619 35.0239 73.8709 34.4465 73.874 33.7152L73.374 33.713C73.3702 34.5908 73.7249 35.3083 74.3034 35.8017C74.8781 36.2919 75.6605 36.5506 76.5049 36.547L76.5027 36.047ZM73.874 33.713C73.8709 32.9752 74.1614 32.4152 74.6244 32.0349C75.0929 31.65 75.7546 31.4365 76.5038 31.4365V30.9365C75.6646 30.9365 74.883 31.1753 74.307 31.6485C73.7254 32.1262 73.3702 32.83 73.374 33.7152L73.874 33.713ZM93.939 28.5069L93.9384 28.7569L93.9395 28.7569L93.939 28.5069ZM88.1034 33.7141L88.3534 33.7152L88.3533 33.7129L88.1034 33.7141ZM99.8368 33.7141L100.087 33.7147L100.087 33.7135L99.8368 33.7141ZM96.8188 33.7141L97.0688 33.7152L97.0688 33.713L96.8188 33.7141ZM93.939 36.297L93.94 36.047L93.9379 36.047L93.939 36.297ZM91.0592 33.7141L91.3092 33.7152L91.3092 33.713L91.0592 33.7141ZM93.9395 28.2569C90.6581 28.2498 87.8388 30.5406 87.8534 33.7152L88.3533 33.7129C88.3403 30.8793 90.8663 28.7502 93.9384 28.7569L93.9395 28.2569ZM87.8534 33.7129C87.8388 36.8679 90.6592 39.1506 93.939 39.1506V38.6506C90.8652 38.6506 88.3403 36.5271 88.3533 33.7152L87.8534 33.7129ZM93.939 39.1506C97.2738 39.1506 100.079 36.8685 100.087 33.7147L99.5868 33.7135C99.5803 36.5265 97.0682 38.6506 93.939 38.6506V39.1506ZM100.087 33.7135C100.079 30.5399 97.2749 28.2498 93.9385 28.2569L93.9395 28.7569C97.0671 28.7502 99.5803 30.88 99.5868 33.7147L100.087 33.7135ZM93.939 31.4365C94.7099 31.4365 95.3671 31.6505 95.8276 32.0338C96.2828 32.4128 96.5657 32.9731 96.5688 33.7152L97.0688 33.713C97.0651 32.8321 96.7229 32.1286 96.1475 31.6495C95.5772 31.1748 94.7979 30.9365 93.939 30.9365V31.4365ZM96.5688 33.713C96.5657 34.4486 96.2823 35.0263 95.824 35.4224C95.3622 35.8216 94.7058 36.0502 93.94 36.047L93.9379 36.547C94.802 36.5506 95.5821 36.2924 96.151 35.8007C96.7234 35.3059 97.0651 34.5887 97.0688 33.7152L96.5688 33.713ZM93.9379 36.047C93.1939 36.0502 92.533 35.8221 92.0631 35.4213C91.5971 35.0239 91.306 34.4465 91.3092 33.7152L90.8092 33.713C90.8054 34.5908 91.1601 35.3083 91.7386 35.8017C92.3133 36.2919 93.0957 36.5506 93.9401 36.547L93.9379 36.047ZM91.3092 33.713C91.306 32.9752 91.5965 32.4152 92.0595 32.0349C92.528 31.65 93.1898 31.4365 93.939 31.4365V30.9365C93.0998 30.9365 92.3182 31.1753 91.7421 31.6485C91.1606 32.1262 90.8054 32.83 90.8092 33.7152L91.3092 33.713ZM111.374 28.5069L111.374 28.7569L111.375 28.7569L111.374 28.5069ZM105.539 33.7141L105.789 33.7152L105.789 33.7129L105.539 33.7141ZM117.272 33.7141L117.522 33.7147L117.522 33.7135L117.272 33.7141ZM114.254 33.7141L114.504 33.7152L114.504 33.713L114.254 33.7141ZM111.374 36.297L111.375 36.047L111.373 36.047L111.374 36.297ZM108.494 33.7141L108.744 33.7152L108.744 33.713L108.494 33.7141ZM111.375 28.2569C108.093 28.2498 105.274 30.5406 105.289 33.7152L105.789 33.7129C105.775 30.8793 108.301 28.7502 111.374 28.7569L111.375 28.2569ZM105.289 33.7129C105.274 36.8679 108.094 39.1506 111.374 39.1506V38.6506C108.3 38.6506 105.775 36.5271 105.789 33.7152L105.289 33.7129ZM111.374 39.1506C114.709 39.1506 117.515 36.8685 117.522 33.7147L117.022 33.7135C117.015 36.5265 114.503 38.6506 111.374 38.6506V39.1506ZM117.522 33.7135C117.515 30.5399 114.71 28.2498 111.374 28.2569L111.375 28.7569C114.502 28.7502 117.015 30.88 117.022 33.7147L117.522 33.7135ZM111.374 31.4365C112.145 31.4365 112.802 31.6505 113.263 32.0338C113.718 32.4128 114.001 32.9731 114.004 33.7152L114.504 33.713C114.5 32.8321 114.158 32.1286 113.583 31.6495C113.012 31.1748 112.233 30.9365 111.374 30.9365V31.4365ZM114.004 33.713C114.001 34.4486 113.717 35.0263 113.259 35.4224C112.797 35.8216 112.141 36.0502 111.375 36.047L111.373 36.547C112.237 36.5506 113.017 36.2924 113.586 35.8007C114.159 35.3059 114.5 34.5887 114.504 33.7152L114.004 33.713ZM111.373 36.047C110.629 36.0502 109.968 35.8221 109.498 35.4213C109.032 35.0239 108.741 34.4465 108.744 33.7152L108.244 33.713C108.241 34.5908 108.595 35.3083 109.174 35.8017C109.748 36.2919 110.531 36.5506 111.375 36.547L111.373 36.047ZM108.744 33.713C108.741 32.9752 109.032 32.4152 109.495 32.0349C109.963 31.65 110.625 31.4365 111.374 31.4365V30.9365C110.535 30.9365 109.753 31.1753 109.177 31.6485C108.596 32.1262 108.241 32.83 108.244 33.7152L108.744 33.713ZM128.809 28.5069L128.809 28.7569L128.81 28.7569L128.809 28.5069ZM122.974 33.7141L123.224 33.7152L123.224 33.7129L122.974 33.7141ZM134.707 33.7141L134.957 33.7147V33.7135L134.707 33.7141ZM131.689 33.7141L131.939 33.7152L131.939 33.713L131.689 33.7141ZM128.809 36.297L128.81 36.047L128.808 36.047L128.809 36.297ZM125.929 33.7141L126.179 33.7152V33.713L125.929 33.7141ZM128.81 28.2569C125.528 28.2498 122.709 30.5406 122.724 33.7152L123.224 33.7129C123.211 30.8793 125.737 28.7502 128.809 28.7569L128.81 28.2569ZM122.724 33.7129C122.709 36.8679 125.529 39.1506 128.809 39.1506V38.6506C125.736 38.6506 123.211 36.5271 123.224 33.7152L122.724 33.7129ZM128.809 39.1506C132.144 39.1506 134.95 36.8685 134.957 33.7147L134.457 33.7135C134.451 36.5265 131.939 38.6506 128.809 38.6506V39.1506ZM134.957 33.7135C134.95 30.5399 132.145 28.2498 128.809 28.2569L128.81 28.7569C131.937 28.7502 134.451 30.88 134.457 33.7147L134.957 33.7135ZM128.809 31.4365C129.58 31.4365 130.237 31.6505 130.698 32.0338C131.153 32.4128 131.436 32.9731 131.439 33.7152L131.939 33.713C131.935 32.8321 131.593 32.1286 131.018 31.6495C130.448 31.1748 129.668 30.9365 128.809 30.9365V31.4365ZM131.439 33.713C131.436 34.4486 131.153 35.0263 130.694 35.4224C130.233 35.8216 129.576 36.0502 128.81 36.047L128.808 36.547C129.672 36.5506 130.452 36.2924 131.021 35.8007C131.594 35.3059 131.935 34.5887 131.939 33.7152L131.439 33.713ZM128.808 36.047C128.064 36.0502 127.403 35.8221 126.933 35.4213C126.467 35.0239 126.176 34.4465 126.179 33.7152L125.679 33.713C125.676 34.5908 126.03 35.3083 126.609 35.8017C127.184 36.2919 127.966 36.5506 128.81 36.547L128.808 36.047ZM126.179 33.713C126.176 32.9752 126.467 32.4152 126.93 32.0349C127.398 31.65 128.06 31.4365 128.809 31.4365V30.9365C127.97 30.9365 127.188 31.1753 126.612 31.6485C126.031 32.1262 125.676 32.83 125.679 33.7152L126.179 33.713ZM150.105 34.9434H149.855V35.1934H150.105V34.9434ZM153.227 34.9434V35.1934H153.477V34.9434H153.227ZM153.227 24.8743H153.477V24.6243H153.227V24.8743ZM150.105 24.8743V24.6243H149.855V24.8743H150.105ZM148.896 31.076L149.144 31.0427L149.108 30.7738L148.843 30.8317L148.896 31.076ZM142.115 31.7873H141.865V32.0421L142.119 32.0372L142.115 31.7873ZM142.115 25.9102H142.365V25.6602H142.115V25.9102ZM138.979 25.9102V25.6602H138.729V25.9102H138.979ZM138.979 34.384H138.729V34.634H138.979V34.384ZM140.609 34.384V34.634L140.61 34.634L140.609 34.384ZM149.235 33.5967L149.287 33.8411L149.513 33.7926L149.483 33.5634L149.235 33.5967ZM153.227 42.7403V42.9903H153.477V42.7403H153.227ZM153.227 35.6133H153.477V35.3633H153.227V35.6133ZM140.961 35.6133V35.3633H140.711V35.6133H140.961ZM140.961 42.7403H140.711V42.9903H140.961V42.7403ZM150.153 38.0442H150.403V37.7942H150.153V38.0442ZM150.153 40.3163V40.5663H150.403V40.3163H150.153ZM144.035 40.3163H143.785V40.5663H144.035V40.3163ZM144.035 38.0442V37.7942H143.785V38.0442H144.035ZM150.105 35.1934H153.227V34.6934H150.105V35.1934ZM153.477 34.9434V24.8743H152.977V34.9434H153.477ZM153.227 24.6243H150.105V25.1243H153.227V24.6243ZM149.855 24.8743V34.9434H150.355V24.8743H149.855ZM148.843 30.8317C146.716 31.2968 144.647 31.4892 142.11 31.5373L142.119 32.0372C144.678 31.9887 146.781 31.7943 148.95 31.3202L148.843 30.8317ZM142.365 31.7873V25.9102H141.865V31.7873H142.365ZM142.115 25.6602H138.979V26.1602H142.115V25.6602ZM138.729 25.9102V34.384H139.229V25.9102H138.729ZM138.979 34.634H140.609V34.134H138.979V34.634ZM140.61 34.634C143.935 34.627 146.627 34.4123 149.287 33.8411L149.182 33.3523C146.567 33.9137 143.913 34.1271 140.609 34.134L140.61 34.634ZM149.483 33.5634L149.144 31.0427L148.649 31.1092L148.987 33.6299L149.483 33.5634ZM153.477 42.7403V35.6133H152.977V42.7403H153.477ZM153.227 35.3633H140.961V35.8633H153.227V35.3633ZM140.711 35.6133V42.7403H141.211V35.6133H140.711ZM140.961 42.9903H153.227V42.4903H140.961V42.9903ZM149.903 38.0442V40.3163H150.403V38.0442H149.903ZM150.153 40.0663H144.035V40.5663H150.153V40.0663ZM144.285 40.3163V38.0442H143.785V40.3163H144.285ZM144.035 38.2942H150.153V37.7942H144.035V38.2942ZM59.446 48.8743V48.6243H59.196V48.8743H59.446ZM59.446 58.5981H59.196V58.8481H59.446V58.5981ZM62.5951 58.5981V58.8481H62.8451V58.5981H62.5951ZM62.5951 48.8743H62.8451V48.6243H62.5951V48.8743ZM52.602 49.5511L52.6014 49.8011L52.6027 49.8011L52.602 49.5511ZM47.533 53.9157L47.783 53.9164L47.783 53.9151L47.533 53.9157ZM52.602 58.2113L52.6014 58.4613L52.6027 58.4613L52.602 58.2113ZM52.602 55.6492L52.6006 55.8992L52.6036 55.8992L52.602 55.6492ZM50.5924 53.9157L50.8424 53.9172L50.8424 53.9142L50.5924 53.9157ZM50.2816 59.3163V59.0663H50.0316V59.3163H50.2816ZM50.2816 66.768H50.0316V67.018H50.2816V66.768ZM62.5951 66.768V67.018H62.8451V66.768H62.5951ZM62.5951 59.3163H62.8451V59.0663H62.5951V59.3163ZM59.4598 59.3163V59.0663H59.2098V59.3163H59.4598ZM59.4598 60.663V60.913H59.7098V60.663H59.4598ZM53.3617 60.663H53.1117V60.913H53.3617V60.663ZM53.3617 59.3163H53.6117V59.0663H53.3617V59.3163ZM53.3617 63.0594V62.8094H53.1117V63.0594H53.3617ZM59.4598 63.0594H59.7098V62.8094H59.4598V63.0594ZM59.4598 64.2472V64.4972H59.7098V64.2472H59.4598ZM53.3617 64.2472H53.1117V64.4972H53.3617V64.2472ZM59.196 48.8743V58.5981H59.696V48.8743H59.196ZM59.446 58.8481H62.5951V58.3481H59.446V58.8481ZM62.8451 58.5981V48.8743H62.3451V58.5981H62.8451ZM62.5951 48.6243H59.446V49.1243H62.5951V48.6243ZM52.6026 49.3011C49.6384 49.294 47.2756 51.1785 47.283 53.9164L47.783 53.9151C47.7766 51.5287 49.8337 49.7944 52.6014 49.8011L52.6026 49.3011ZM47.283 53.9151C47.2756 56.5729 49.6416 58.4542 52.6014 58.4613L52.6026 57.9613C49.8304 57.9546 47.7766 56.2171 47.783 53.9164L47.283 53.9151ZM52.6027 58.4613C55.5494 58.4542 57.9142 56.5725 57.9142 53.9157H57.4142C57.4142 56.2175 55.3591 57.9547 52.6014 57.9613L52.6027 58.4613ZM57.9142 53.9157C57.9142 51.179 55.5526 49.294 52.6014 49.3011L52.6027 49.8011C55.3559 49.7944 57.4142 51.5282 57.4142 53.9157H57.9142ZM52.602 52.3978C53.1255 52.3978 53.5529 52.5398 53.8451 52.7894C54.1321 53.0345 54.3134 53.4037 54.3134 53.9157H54.8134C54.8134 53.2744 54.5803 52.7597 54.1698 52.4092C53.7645 52.0631 53.2111 51.8978 52.602 51.8978V52.3978ZM54.3134 53.9157C54.3134 54.4308 54.1325 54.7879 53.8484 55.022C53.5572 55.2621 53.1291 55.396 52.6005 55.3992L52.6036 55.8992C53.2076 55.8955 53.7602 55.7427 54.1664 55.4079C54.5799 55.0671 54.8134 54.5609 54.8134 53.9157H54.3134ZM52.6035 55.3992C52.0486 55.3959 51.6065 55.261 51.3089 55.0205C51.0196 54.7866 50.8393 54.431 50.8424 53.9172L50.3424 53.9143C50.3385 54.5607 50.5727 55.0683 50.9946 55.4094C51.4084 55.7438 51.9746 55.8955 52.6006 55.8992L52.6035 55.3992ZM50.8424 53.9142C50.8393 53.4035 51.02 53.0357 51.3123 52.7909C51.6107 52.5411 52.052 52.3978 52.602 52.3978V51.8978C51.9711 51.8978 51.4042 52.0618 50.9913 52.4076C50.5722 52.7585 50.3385 53.2747 50.3424 53.9172L50.8424 53.9142ZM50.0316 59.3163V66.768H50.5316V59.3163H50.0316ZM50.2816 67.018H62.5951V66.518H50.2816V67.018ZM62.8451 66.768V59.3163H62.3451V66.768H62.8451ZM62.5951 59.0663H59.4598V59.5663H62.5951V59.0663ZM59.2098 59.3163V60.663H59.7098V59.3163H59.2098ZM59.4598 60.413H53.3617V60.913H59.4598V60.413ZM53.6117 60.663V59.3163H53.1117V60.663H53.6117ZM53.3617 59.0663H50.2816V59.5663H53.3617V59.0663ZM53.3617 63.3094H59.4598V62.8094H53.3617V63.3094ZM59.2098 63.0594V64.2472H59.7098V63.0594H59.2098ZM59.4598 63.9972H53.3617V64.4972H59.4598V63.9972ZM53.6117 64.2472V63.0594H53.1117V64.2472H53.6117ZM77.0331 66.9406H76.7831V67.1906H77.0331V66.9406ZM80.1546 66.9406V67.1906H80.4046V66.9406H80.1546ZM80.1546 48.8743H80.4046V48.6243H80.1546V48.8743ZM77.0331 48.8743V48.6243H76.7831V48.8743H77.0331ZM68.732 50.5732H68.982V50.3232H68.732V50.5732ZM65.6242 50.5732V50.3232H65.3742V50.5732H65.6242ZM65.6242 62.6105H65.3742V62.8605H65.6242V62.6105ZM67.2955 62.6105L67.2961 62.3605H67.2955V62.6105ZM76.2251 61.7749L76.2763 62.0196L76.5069 61.9713L76.4724 61.7382L76.2251 61.7749ZM75.8452 59.2127L76.0925 59.176L76.0545 58.9194L75.7994 58.9669L75.8452 59.2127ZM68.732 59.9448H68.482V60.2017L68.7389 60.1947L68.732 59.9448ZM77.0331 67.1906H80.1546V66.6906H77.0331V67.1906ZM80.4046 66.9406V48.8743H79.9046V66.9406H80.4046ZM80.1546 48.6243H77.0331V49.1243H80.1546V48.6243ZM76.7831 48.8743V66.9406H77.2831V48.8743H76.7831ZM68.732 50.3232H65.6242V50.8232H68.732V50.3232ZM65.3742 50.5732V62.6105H65.8742V50.5732H65.3742ZM65.6242 62.8605H67.2955V62.3605H65.6242V62.8605ZM67.2949 62.8605C70.0202 62.8674 73.1187 62.6803 76.2763 62.0196L76.1738 61.5302C73.0607 62.1816 69.9989 62.3674 67.2961 62.3605L67.2949 62.8605ZM76.4724 61.7382L76.0925 59.176L75.5979 59.2494L75.9778 61.8115L76.4724 61.7382ZM75.7994 58.9669C73.4041 59.4131 70.9657 59.633 68.7251 59.6948L68.7389 60.1947C71.001 60.1322 73.4659 59.9101 75.891 59.4585L75.7994 58.9669ZM68.982 59.9448V50.5732H68.482V59.9448H68.982ZM96.6298 55.3108H96.3798V55.5608H96.6298V55.3108ZM96.6298 48.8743H96.8798V48.6243H96.6298V48.8743ZM93.4945 48.8743V48.6243H93.2445V48.8743H93.4945ZM93.4945 66.9959H93.2445V67.2459H93.4945V66.9959ZM96.6298 66.9959V67.2459H96.8798V66.9959H96.6298ZM96.6298 57.8453V57.5953H96.3798V57.8453H96.6298ZM99.0746 57.8453V58.0953H99.3246V57.8453H99.0746ZM99.0746 55.3108H99.3246V55.0608H99.0746V55.3108ZM86.0083 53.018V52.768H85.7583V53.018H86.0083ZM91.3812 53.018V53.268H91.6312V53.018H91.3812ZM91.3812 50.4972H91.6312V50.2472H91.3812V50.4972ZM82.8936 50.4972V50.2472H82.6436V50.4972H82.8936ZM82.8936 62.6934H82.6436V62.9434H82.8936V62.6934ZM84.4682 62.6934L84.4693 62.4434H84.4682V62.6934ZM92.7969 62.1961L92.8375 62.4428L93.0749 62.4037L93.045 62.165L92.7969 62.1961ZM92.4724 59.6064L92.7204 59.5753L92.6881 59.3174L92.4316 59.3597L92.4724 59.6064ZM86.0083 60.1243H85.7583V60.3774L86.0113 60.3743L86.0083 60.1243ZM96.8798 55.3108V48.8743H96.3798V55.3108H96.8798ZM96.6298 48.6243H93.4945V49.1243H96.6298V48.6243ZM93.2445 48.8743V66.9959H93.7445V48.8743H93.2445ZM93.4945 67.2459H96.6298V66.7459H93.4945V67.2459ZM96.8798 66.9959V57.8453H96.3798V66.9959H96.8798ZM96.6298 58.0953H99.0746V57.5953H96.6298V58.0953ZM99.3246 57.8453V55.3108H98.8246V57.8453H99.3246ZM99.0746 55.0608H96.6298V55.5608H99.0746V55.0608ZM86.0083 53.268H91.3812V52.768H86.0083V53.268ZM91.6312 53.018V50.4972H91.1312V53.018H91.6312ZM91.3812 50.2472H82.8936V50.7472H91.3812V50.2472ZM82.6436 50.4972V62.6934H83.1436V50.4972H82.6436ZM82.8936 62.9434H84.4682V62.4434H82.8936V62.9434ZM84.4671 62.9434C87.5086 62.9572 90.0466 62.9022 92.8375 62.4428L92.7563 61.9495C90.0086 62.4017 87.5051 62.4572 84.4693 62.4434L84.4671 62.9434ZM93.045 62.165L92.7204 59.5753L92.2243 59.6374L92.5489 62.2272L93.045 62.165ZM92.4316 59.3597C90.2722 59.7162 88.2482 59.8468 86.0052 59.8743L86.0113 60.3743C88.2711 60.3466 90.3216 60.2148 92.5131 59.853L92.4316 59.3597ZM86.2583 60.1243V53.018H85.7583V60.1243H86.2583ZM100.771 50.8564V50.6064H100.512L100.521 50.8652L100.771 50.8564ZM101.116 60.6077L100.866 60.6166L100.875 60.8577H101.116V60.6077ZM104.182 60.6077V60.8577H104.424L104.432 60.6166L104.182 60.6077ZM104.528 50.8564L104.778 50.8652L104.787 50.6064H104.528V50.8564ZM104.541 63.3218L104.792 63.3251L104.791 63.3185L104.541 63.3218ZM100.75 63.3218L101 63.3251L101 63.3185L100.75 63.3218ZM100.521 50.8652L100.866 60.6166L101.366 60.5989L101.021 50.8475L100.521 50.8652ZM101.116 60.8577H104.182V60.3577H101.116V60.8577ZM104.432 60.6166L104.778 50.8652L104.278 50.8475L103.933 60.5989L104.432 60.6166ZM104.528 50.6064H100.771V51.1064H104.528V50.6064ZM102.649 65.4641C103.78 65.4641 104.776 64.5121 104.791 63.3251L104.292 63.3185C104.28 64.231 103.507 64.9641 102.649 64.9641V65.4641ZM104.791 63.3185C104.776 62.1506 103.778 61.2003 102.649 61.2003V61.7003C103.509 61.7003 104.28 62.4351 104.292 63.3252L104.791 63.3185ZM102.649 61.2003C101.468 61.2003 100.484 62.1495 100.5 63.3252L101 63.3185C100.988 62.4361 101.731 61.7003 102.649 61.7003V61.2003ZM100.5 63.3185C100.484 64.5131 101.466 65.4641 102.649 65.4641V64.9641C101.733 64.9641 100.988 64.23 101 63.3251L100.5 63.3185Z" fill="#191919"/>
</svg>
