<svg width="32" height="27" viewBox="0 0 32 27" fill="none" xmlns="http://www.w3.org/2000/svg">
<g clip-path="url(#clip0_1303_7389)">
<path d="M28.2156 17.0394C27.2883 18.028 26.3616 19.0183 25.405 19.9783C24.4995 20.8876 23.5638 21.7704 22.681 22.7028C22.2273 23.1806 21.7976 23.6755 21.3731 24.1792C21.199 24.3864 21.0135 24.5807 20.8309 24.7802C20.7294 24.8912 20.6374 25.0076 20.547 25.1261L20.4991 25.19C20.3284 25.0977 20.1596 25.001 19.9883 24.9189C19.5552 24.7096 19.1178 24.5101 18.7007 24.2647C17.9103 23.7996 17.1644 23.2455 16.3903 22.7523C14.7833 21.7267 13.1841 20.7636 11.4527 19.9515C9.7109 19.1361 7.92273 18.3723 6.11397 17.7027C4.81242 17.2203 3.51795 16.7396 2.23652 16.1966C2.30806 15.9619 2.29224 15.7092 2.19197 15.4847C2.30194 15.2955 2.40191 15.1006 2.49147 14.901C2.7682 14.2378 2.92399 13.5213 3.08765 12.8227C3.41358 11.4406 4.02068 10.1118 4.50449 8.77966C5.02089 7.36767 5.61461 5.98586 6.12943 4.57449C6.37067 3.9114 6.60325 3.24711 6.87089 2.59566L7.05098 2.15163L7.13187 2.3077C7.50168 2.98303 7.79407 3.69762 8.00348 4.4379C8.21492 5.19727 8.38054 5.96522 8.64716 6.70967C8.9317 7.51175 9.25765 8.3033 9.49031 9.12176C9.5196 9.21672 9.54133 9.31383 9.5553 9.41216C9.57624 9.55611 9.6074 9.69843 9.64853 9.83803C9.6996 10.0116 9.7874 10.1723 9.90599 10.3092C10.0246 10.4462 10.1712 10.5563 10.3359 10.632C11.0609 10.9596 11.8319 10.3758 12.443 10.0237C13.9121 9.18236 15.2965 8.18464 16.7049 7.24855C17.5101 6.71248 18.3134 6.17167 19.1285 5.65176C19.3556 5.50593 19.5828 5.36011 19.8042 5.20651C19.7913 5.43242 19.7778 5.65943 19.76 5.88451C19.6578 6.89569 19.6446 7.91409 19.7205 8.92804C19.906 10.9938 20.1078 13.0406 20.1985 15.1129C20.2473 16.235 21.143 16.4822 22.1041 16.346C23.173 16.1946 24.2554 16.0962 25.329 15.9965C26.4027 15.8969 27.5057 15.8259 28.595 15.7593C28.893 15.7416 29.1924 15.7271 29.4909 15.7083C29.0523 16.1429 28.6348 16.5922 28.2156 17.0394Z" fill="#E1AA76"/>
</g>
<defs>
<clipPath id="clip0_1303_7389">
<rect width="26" height="18" fill="white" transform="translate(8.07129) rotate(23.8009)"/>
</clipPath>
</defs>
</svg>
