<svg width="16" height="16" viewBox="0 0 16 16" fill="none" xmlns="http://www.w3.org/2000/svg">
<circle cx="8" cy="8" r="8" fill="#000000"/>
<path fill-rule="evenodd" clip-rule="evenodd" d="M4.37569 4.37569C4.61 4.14137 4.9899 4.14137 5.22422 4.37569L7.99995 7.15142L10.7757 4.37569C11.01 4.14137 11.3899 4.14137 11.6242 4.37569C11.8585 4.61 11.8585 4.9899 11.6242 5.22422L7.99995 8.84848L4.37569 5.22422C4.14137 4.9899 4.14137 4.61 4.37569 4.37569Z" fill="white"/>
<path fill-rule="evenodd" clip-rule="evenodd" d="M11.6242 11.6242C11.3899 11.8585 11.01 11.8585 10.7757 11.6242L7.99993 8.84845L5.22419 11.6242C4.98988 11.8585 4.60998 11.8585 4.37566 11.6242C4.14135 11.3899 4.14135 11.01 4.37566 10.7757L7.99993 7.1514L11.6242 10.7757C11.8585 11.01 11.8585 11.3899 11.6242 11.6242Z" fill="white"/>
</svg>
