<svg width="72" height="60" viewBox="0 0 72 60" fill="none" xmlns="http://www.w3.org/2000/svg">
<path d="M27.1251 21.3083L35.7 13.1187C35.8657 12.9604 36.1343 12.9604 36.3 13.1187L44.8749 21.3083C45.1421 21.5636 44.9529 22 44.5749 22H43V29C43 29.5523 42.5523 30 42 30H30C29.4477 30 29 29.5523 29 29V22H27.4251C27.0471 22 26.8579 21.5636 27.1251 21.3083Z" fill="#000000"/>
<path d="M27.1251 21.3083L35.7 13.1187C35.8657 12.9604 36.1343 12.9604 36.3 13.1187L44.8749 21.3083C45.1421 21.5636 44.9529 22 44.5749 22H43V29C43 29.5523 42.5523 30 42 30H30C29.4477 30 29 29.5523 29 29V22H27.4251C27.0471 22 26.8579 21.5636 27.1251 21.3083Z" fill="#000000"/>
<path d="M35.9508 38.7762V37.9648H35.0288V38.7762H31.9073V39.4876H39.0309V38.7762H35.9508ZM35.9508 42.2707C37.5012 42.2086 38.361 41.7907 38.361 41.0414C38.361 40.2231 37.3286 39.8052 35.4847 39.7983C33.6511 39.8052 32.6083 40.2231 32.6117 41.0414C32.6083 41.7942 33.4784 42.2086 35.0288 42.2742V42.8646H31.5033V43.6001H39.4798V42.8646H35.9508V42.2707ZM33.6027 41.0414C33.5958 40.6374 34.2623 40.4406 35.4847 40.4372C36.7139 40.4406 37.37 40.6374 37.3735 41.0414C37.37 41.4351 36.7139 41.6423 35.4847 41.6457C34.2623 41.6423 33.5958 41.4351 33.6027 41.0414ZM38.5061 46.7182V44.1975H32.4598V46.7182H38.5061ZM37.6048 44.9019V46.0138H33.3748V44.9019H37.6048Z" fill="#000000"/>
</svg>
