<svg width="23" height="16" viewBox="0 0 23 16" fill="none" xmlns="http://www.w3.org/2000/svg">
<g clip-path="url(#clip0_1303_8354)">
<path d="M22.2375 6.6182C21.843 7.74085 21.4495 8.86454 21.0211 9.97457C20.616 11.0257 20.1772 12.0664 19.7984 13.1281C19.6033 13.6726 19.4334 14.2223 19.2709 14.7773C19.2045 15.0054 19.1243 15.2272 19.0484 15.4522C19.0062 15.5773 18.9734 15.7034 18.9429 15.8306L18.927 15.8989C18.7572 15.8853 18.5873 15.8674 18.4206 15.8621C17.9987 15.8474 17.5767 15.8422 17.1547 15.7928C16.355 15.6992 15.5596 15.5184 14.7631 15.3965C13.1089 15.1421 11.4832 14.935 9.80471 14.8961C8.11676 14.8583 6.40981 14.8782 4.71975 14.9813C3.50337 15.0548 2.29332 15.1274 1.07166 15.1452C1.04598 14.9314 0.943715 14.7339 0.783657 14.5892C0.804951 14.3982 0.81622 14.2063 0.817417 14.0142C0.804757 13.3835 0.676051 12.7528 0.560004 12.1337C0.33213 10.908 0.349009 9.62558 0.265666 8.38416C0.180214 7.06705 0.167554 5.74679 0.0810467 4.43073C0.0399029 3.81265 -0.00862571 3.19667 -0.0244503 2.57858L-0.0371094 2.15812L0.0831587 2.25482C0.619464 2.66625 1.10748 3.13664 1.53796 3.65707C1.97683 4.19212 2.38194 4.75028 2.85984 5.25379C3.37255 5.79724 3.91481 6.31757 4.39165 6.89256C4.44882 6.95846 4.50068 7.02875 4.54674 7.10279C4.61456 7.21099 4.69 7.31427 4.7725 7.41183C4.87501 7.53314 5.00247 7.63111 5.14625 7.69911C5.29003 7.76711 5.44678 7.80357 5.60592 7.80602C6.30431 7.81232 6.71681 7.0702 7.08288 6.5709C7.96483 5.37467 8.72336 4.08279 9.52303 2.83191C9.97983 2.11607 10.4335 1.39707 10.904 0.690688C11.0348 0.493069 11.1656 0.295451 11.289 0.0936279C11.3587 0.279684 11.4283 0.46679 11.4937 0.653897C11.7699 1.50231 12.1201 2.325 12.5402 3.11257C13.4211 4.70614 14.3084 6.27868 15.1154 7.91113C15.5522 8.79516 16.3592 8.67638 17.0829 8.22648C17.8879 7.72613 18.7224 7.26362 19.5495 6.80321C20.3766 6.3428 21.2374 5.895 22.0888 5.45562C22.3219 5.33578 22.5572 5.21805 22.7903 5.09717C22.592 5.60173 22.4158 6.11049 22.2375 6.6182Z" fill="#39E7FF"/>
</g>
<defs>
<clipPath id="clip0_1303_8354">
<rect width="22.8253" height="15.8022" fill="white" transform="translate(0.174805)"/>
</clipPath>
</defs>
</svg>
